<?xml version="1.0" encoding="UTF-8"?>
<svg version="1.1" viewBox="0 0 1080 1046" width="1280" height="1280" xmlns="http://www.w3.org/2000/svg">
<path transform="translate(0)" d="m0 0h1080v1046h-1080z" fill="#020001"/>
<path transform="translate(517,287)" d="m0 0 5 2 12 5 45 9 16 5 15 6 19 10 17 12 7 6 1 3-13 1v1h72l1 4-1 2-48 1 5 5 10 4v3l4 4 2 1v5l3 1 13 18 8 14 5 11 5 17 1 11 3 1 31 1 3 1v4l-38 1v11l-4 10-3 4h-2l-2 9h-2l-2 4-6 7h-2l-2 4-9 8-11 6h-3l-2 10-2 9v12l-2 6-6 2-1 2h-2l-5-6-1 2 1 6-4-2-8-8 5 9 3 3v2h-7l-19-4v2l9 2 25 4 1 1 9 1 6 2 41 8 1 3-1 2-9-1-38-7-10-2-4-1 3 5 2 6 5 8 7 11v2h2l5 9v3h2l3 10 2 2v6h2l6 22 2 16v19l35 1-1-2-2 1-1-9v-2l-3-1v-2l-2-2v-5l-2 1-3-6-2-1v-2l-6-2 2-6 4-1h19l11 4 6 4 8 9 2 3 3 1-1-13 4 2 6 8 7 3 3 5 1 2v9l3 1 56 1 2 2v24l-4 1-2-2v-19l-56 1 2 2-1 1h1l1 10h1l-1 14-3 5v6l-2 1v3h6l1 12-2 9-3 4-4 10h-3v9l-2 1-2 9-4 6-2 4-4-1 2 10 9 24 4 10 6 16 4 9 1 8-3 1-3-5-15-40-7-19v-2l-4-1 1 3-4 6-2 4h-2v2h-3l-1 3h-2v12l-3 16-3 10-3 3-2 6h-2l-3 11-14 29-8 13-7 9-1 1-23 3-10 4 17-4 17-1 15 3 7 5 5 7 2 5v13l-4 6-4 4-5 1 3-6 1-4v-11l-3-9 2 15-2 8-5 6-7 3h-12l-1-4 2-6-1-12-3-9v3l2 6v12l-4 8-8 4h-7l-6-2v-15l-4-9-5-8 7 14 1 3v9l-3 7-5 4-6 1v-13l-5-14v-3h-2l5 12 1 11-3 5-4 2h-13l-1-3v-10l-4-13 3 13v7l-2 5-4 2h-12l-24-4-12-4-3-6-5 2h-6v-1h-27l-2-1v-2l-6 3-6 8h-2l-1 3-5 2-9 2h-27l-12-3-1 3-5 1-12-1-3-1v2l-14 1-7-2-14-2-2 1h-8v-4l-4-1-2 2-4 2-3 1v-2l-5-1-2-5v-8h-2l-1-7 4-9 2-2h3v-2h3v-2l5 1v-2l4-1 1-2 8-1v-4l-6-5-5-9v-2h-2l-1-3 1-3-6-10v-3h-2v-3h-46l-1-4 1-1 39-3-1-5-6-14-6-18-3-15v-28h5v-3l-2 1v-9l-1 2h-2l2-6 2-4-4 3h-2l1-3 8-7 9-6 8-3 6-1h9l2-6 2-7v-6l2-10 2-7 1-2 1-4 2-7-8 1-24 7-5-1 1-4 20-6 15-4 5-3-3-3-1-7 3-1-2-14v-27l2-14 3-8 6-21 6-13h16l-36-6-21-3-2-1 1-5h6l8 2 112 17 5 2-1 4-35-5h-7l7 2 28 4h9l1-6-3-2-38-6-42-6v-5l9-13 8-10 5-6 8-7 3-4-6 4-10 9h-2l-1-3-1-23-2 15-3-1-1-3v-10l1-5-3 1-4 4 1-5h2l1-9-3 1-5 6-2-1 1-3v-17l11 1 4 1 3-6 4 2 1-11v-26l-11-75-3-19-1-16v17l3 25 8 55 2 15v26l-1 5-5-1v5h-3l-10-1-11-5-12-7-5-1-4-2-5-4v-2h-2l-2-5-3-1v-3h-2l-4-8-3-5-2-4-1-9 1-2-35 9h-6v-4l18-5 19-5 2-18 4-14 6-15 5-8 7-10 9-12 5-5h-2v-2l9-6-3-1v-2l11-4 7-5 1 3 7-13 9-12 7-8h2l1-3 8-7 9-7 8-1 6 2 7-1v-6l-5-3 3-3 8-4 8-2 6 1 1 1 1-2-9-3-1-3h7l9 3-1-1-7-6z" fill="#E59A24"/>
<path transform="translate(517,287)" d="m0 0 5 2 12 5 45 9 16 5 15 6 19 10 17 12 7 6 1 3-13 1v1h72l1 4-1 2-48 1 5 5 10 4v3l4 4 2 1v5l3 1 13 18 8 14 5 11 5 17 1 11 3 1 31 1 3 1v4l-38 1v11l-4 10-3 4h-2l-2 9h-2l-2 4-6 7h-2l-2 4-9 8-11 6h-3l-2 10-2 9v12l-2 6-6 2-1 2h-2l-5-6-1 2 1 6-4-2-8-8 5 9 3 3v2h-7l-19-4v2l9 2 25 4 1 1 9 1 6 2 41 8 1 3-1 2-9-1-38-7-10-2-4-1 3 5 2 6 5 8 7 11v2h2l5 9v3h2l3 10 2 2v6h2l6 22 2 16v19l35 1-1-2-2 1-1-9v-2l-3-1v-2l-2-2v-5l-2 1-3-6-2-1v-2l-6-2 2-6 4-1h19l11 4 6 4 8 9 2 3 3 1-1-13 4 2 6 8 7 3 3 5 1 2v9l3 1 56 1 2 2v24l-4 1-2-2v-19l-56 1 2 2-1 1h1l1 10h1l-1 14-3 5v6l-2 1v3h6l1 12-2 9-3 4-4 10h-3v9l-2 1-2 9-4 6-2 4-4-1 2 10 9 24 4 10 6 16 4 9 1 8-3 1-3-5-15-40-7-19v-2l-4-1 1 3-4 6-2 4h-2v2h-3l-1 3h-2v12l-3 16-3 10-3 3-2 6-1-4 6-21 3-17v-23l-5-13-9-10-12-6-4-1h-10l-1 1v14l-1 19-3 20-6 21-9 21-8 15-7 10-7 8h-2l2-5 10-14 8-14 8-19 6-20 4-22 1-22v-14l-3-28-4-20-1-1-5 14-1 15-4-1v-12h3l1-9 6-18 4-22v-33l-4-22-5-17-11-23-10-15-3-3-4-7-5-6 4 1-4-4-74-14-2 4-5 6-7 4-4 1h-12l-11-4-3-2-10-1h-4-1v-5h-2l-1 3-6 2-1 2h-2v-4l-4 8-4 2h-3v-3l7-6 1-2-7 6h-3l1-4-11 11h-4v-5l-7 8-6 7h-2v3l-3 1 2-10 2-5 7-7-6 3-11 10h-2l-1-3-1-23-2 15-3-1-1-3v-10l1-5-3 1-4 4 1-5h2l1-9-3 1-5 6-2-1 1-3v-17l11 1 4 1 3-6 4 2 1-11v-26l-11-75-3-19-1-16v17l3 25 8 55 2 15v26l-1 5-5-1v5h-3l-10-1-11-5-12-7-5-1-4-2-5-4v-2h-2l-2-5-3-1v-3h-2l-4-8-3-5-2-4-1-9 1-2-35 9h-6v-4l18-5 19-5 2-18 4-14 6-15 5-8 7-10 9-12 5-5h-2v-2l9-6-3-1v-2l11-4 7-5 1 3 7-13 9-12 7-8h2l1-3 8-7 9-7 8-1 6 2 7-1v-6l-5-3 3-3 8-4 8-2 6 1 1 1 1-2-9-3-1-3h7l9 3-1-1-7-6z" fill="#E49A26"/>
<path transform="translate(493,710)" d="m0 0 5 2 1 5-2 3-16 5h-4l1 4 8 10 4 3v2h2v2l4 2 6 8-1 2 8 5 4 3-1 3 11 7 13 2 19 1 12-6 9-7 5-5h2l2-6 2-1v2h2l2-4 8-10 2-3h2l8-10 2-3h2l1-3h2l2-4 6-8h2l-2 4-9 16-9 12-4 7-7 9-3 5h-2l-2 4-3 3-3 5-4 4h-2l-2 12 4-7h2l-3 9-4 10-2 4 2 1 2-4 3-1-2 5-4 9 1 28v21l-2 27-1 1-1 14-1 37v36l3 9 4 5-7-2-3-6-5 2h-6v-1h-27l-2-1v-2l-6 3-6 8h-2l-1 3-5 2-9 2h-27l-12-3-1 3-5 1-12-1-3-1v2l-14 1-7-2-14-2-2 1h-8v-4l-4-1-2 2-4 2-3 1v-2l-5-1-2-5v-8h-2l-1-7 4-9 2-2h3v-2h3v-2l5 1v-2l4-1 1-2 8-1v-4l-6-5-5-9v-2h-2l-1-3 1-3-6-10v-3h-2v-3h-46l-1-4 1-1 39-3-1-5-6-14-6-18-3-15v-28h5v-3l-2 1v-9l-1 2h-2l2-6 2-4-4 3h-2l1-3 8-7 9-6 8-3 6-1h9l2-6 2-7v-6l2-10 2-7 1-2 1-4 2-7-8 1-24 7-5-1 1-4 20-6 15-4 5-3-3-3-1-7 3-1 2 10 13-4 7-2 30-9 26-8z" fill="#B77135"/>
<path transform="translate(517,432)" d="m0 0 1 4-2 2h-3v2l5 1 8-5 9-3 6-1h14l12 3 6 1 1 7v8l-2 9-5 7-9 2-6 7-6 1 1 14 1 3 15 7 15 5 4 1h12l9-5 8-10 9-16 2-4v-3l-7-1v-3l5-1 6 3 4 7h-3l-3-3-2 9-8 15-9 11-6 4-6 1-2 5-8 11-3 16 5-5 6-8 1 2-7 11-6 7-1 3 24 4 15 3 2 1v2l-14-1-28-6-14-2v3l92 18-3 1 3 5 2 6 5 8 7 11v2h2l5 9v3h2l3 10 2 2v6h2l6 22 2 16v19l35 1-1-2-2 1-1-9v-2l-3-1v-2l-2-2v-5l-2 1-3-6-2-1v-2l-6-2 2-6 4-1h19l11 4 6 4 8 9 2 3 3 1-1-13 4 2 6 8 7 3 3 5 1 2v9l3 1 56 1 2 2v24l-4 1-2-2v-19l-56 1 2 2-1 1h1l1 10h1l-1 14-3 5v6l-2 1v3h6l1 12-2 9-3 4-4 10h-3v9l-2 1-2 9-4 6-2 4-4-1 2 10 9 24 4 10 6 16 4 9 1 8-3 1-3-5-15-40-7-19v-2l-4-1 1 3-4 6-2 4h-2v2h-3l-1 3h-2v12l-3 16-3 10-3 3-2 6-1-4 6-21 3-17v-23l-5-13-9-10-12-6-4-1h-10l-1 1v14l-1 19-3 20-6 21-9 21-8 15-7 10-7 8h-2l2-5 10-14 8-14 8-19 6-20 4-22 1-22v-14l-3-28-4-20-1-1-5 14-1 15-4-1v-12h3l1-9 6-18 4-22v-33l-4-22-5-17-11-23-10-15-3-3-4-7-5-6 4 1-4-4-74-14-2 4-5 6-7 4-4 1h-12l-11-4-10-9-7-10-12-11-5-8v-2l3 1 6 8 7 6-3-11-1-10-6-2-2-4-3-1-2-3-10-4-10-9-5-5-5-9-3-9-4 4 1-5 7-8 1-1h7v2l-7 3-2 3 5 13 8 10 9 7 4 2 6 1h9l16-8 18-11h2v-16l-8-4-2-2-9-2-6-7-2-5-1-14-3-3-2-1 1-3z" fill="#360E02"/>
<path transform="translate(464,729)" d="m0 0h6l8 12 5 8 1 5h2l2 5 2 1 5 13 8 14 3 6-1 2-7-6 11 18 2 6h-2l3 8v4h-2l-1 7-3 24-2 6-1 17-2 23-1 16v47h-6l1 9h-2l1 6-4 5-3 10-1 4h-22l-3-4v-7l4-11 4-8-7 10-3 11 1 9-1 1h-20l-7-3-3-5 1-8 4-10 5-7-4 4-6 12-1 10 3 5 2 3-1 1h-11l-5-4-2-7 1-9 5-10 8-11 10-9 7-5 1-6v-24l1-1 21-1 3-3-1-5h-24l-2-3-4-32-9-46-6-30 2 17 2 10 1 17h-3v-4h-3l2 9 1 10h-3l-1-5h-2l5 16 1 5-4 8-5-1-4-8-2-1-1-5h-2l-1-4h-2l-4-10-2-13-1-12v-16l3-29 6-33 1-2h2l9 29 3 8 1 8 1-4-10-35v-7l8-3z" fill="#E59B25"/>
<path transform="translate(656,371)" d="m0 0h2l1 4v12l-4 26-5 32 40 1 31 1 3 2 31 1 3 1v4l-38 1v11l-4 10-3 4h-2l-2 9h-2l-2 4-6 7h-2l-2 4-9 8-11 6h-3l-2 10-2 9v12l-2 6-6 2-1 2h-2l-5-6-1 2 1 6-4-2-8-8 5 9 3 3v2h-7l-19-4v2l9 2 25 4 1 1 9 1 6 2 41 8 1 3-1 2-9-1-38-7-10-2-6-2-83-16-5-2 1-4 14 2 28 6 14 2v-2l-28-5-13-3 1-4 10-13 1-4-8 11h-2l2-16 11-16 9-4 5-4 9-13 6-13 2-6 3 1 2 2-4-7-7-2-3 2 7 1 1 4-9 17-9 12-5 4-6 3h-12l-16-5-16-7-3-2-1-3v-14l7-3 5-6 9-2 4-6 2-9v-10l3 3 1-1h34l10 1 26 1 1-12 7-43z" fill="#E29927"/>
<path transform="translate(493,710)" d="m0 0 5 2 1 5-2 3-16 5h-4l1 4 8 10 4 3v2h2v2l4 2 6 8-1 2 8 5 4 3v2l-3 1 9 7v2l11 2 1 1-1 11-6 35-4 34-5 58v39l1 10v19l-2 7-4 3-16 4-28-1v-1h20l1-9 4-8 2-2v-6h2l-2-5 1-5 6 1-1-2v-45l2-31 2-18v-7l2-6 3-27 1-5 3 1-4-13 2-1-5-9-7-11v-2l4 2 3 2-8-15-4-8-3-7v-3l-3-1-1-5h-2l-4-8-7-11-3-5-9 1-45 13v7l10 35-1 5-2-1-2-11-9-27-1-7h-2l-5 29-3 22-1 13v16l2 20 3 9 1 6h2l1 4h2l1 5 3 1 4 8 4 1 2-7 1-3-4-11-1-8h2l1 5h3l-3-19h3v4h3l-3-22-3-18v-7l2 3 7 35 8 41 4 32 1 2h24l2 3-1 5-3 2-21 1-2 3h-1v10l-3-1-2-4h-4l-2-5-2 2-1-4 1-3-58 2-19 1h-21l-1-4 1-1 39-3-1-5-6-14-6-18-3-15v-28h5v-3l-2 1v-9l-1 2h-2l2-6 2-4-4 3h-2l1-3 8-7 9-6 8-3 6-1h9l2-6 2-7v-6l2-10 2-7 1-2 1-4 2-7-8 1-24 7-5-1 1-4 20-6 15-4 5-3-3-3-1-7 3-1 2 10 13-4 7-2 30-9 26-8z" fill="#B77135"/>
<path transform="translate(670,762)" d="m0 0h1v12l-3 8h-2v18l-4 66 1 10 6 9-1 5-7 10-11 14-2 3h2l1 5 2-2-1-4 1 2 5-4 8-11 8-14 7-16 5-12 5-18 3-20 1-25v-8l2-2h10l11 4 8 6 7 8 5 13v23l-5 25-7 22-7 17-11 22-11 16-3 3-23 3-10 4 17-4 17-1 15 3 7 5 5 7 2 5v13l-4 6-4 4-5 1 3-6 1-4v-11l-3-9 2 15-2 8-5 6-7 3h-12l-1-4 2-6-1-12-3-9v3l2 6v12l-4 8-8 4h-7l-6-2v-15l-4-9-5-8-4-1-4-7-3-6-4-1 2-30 5-35 7-40 2-9 2-17h2v-11l5-21-1-5 3-9h3z" fill="#B67135"/>
<path transform="translate(645,355)" d="m0 0h15l3 3 1-3 8 5 9 4-1 3 6 4v5l3 1 13 18 8 14 5 11 5 17 1 10h-31l-31-1-9-1 1-13 6-36 1-9v-16h-2v19l-9 55h-26l-10-1h-34l-2 1-1-3-2-1v-4l-5-1-12-3h-14l-12 3-5 2h-3l-1-6-6-4-4 1-3 3 2 3h-7l-5 4-5 6-1-4 4-6 6-7 10-7 10-5 14-4 7-1h16l18 4 16 8 7 6 3 4 2-3 5 1 2 2h2l2 6 3-3v5l4-2 1-10h-2v2h-2l-3-8-3 3h-2l-3-5 3-2 12-3 9-3-4-21-3-7 1-5 13-18z" fill="#E49B28"/>
<path transform="translate(620,23)" d="m0 0h10l10 5 3 2v2l4 2 6 10 5 17 2 13 1 12v22l-2 18-6 18-2 5h-2l-1 4-6 5-1 2-10 4h-11l-11-6-8-10-6-12-4-15-1-8v-23l3-21 3-15 5-15 6-8 7-6z" fill="#F9F7F5"/>
<path transform="translate(517,432)" d="m0 0 1 4-2 2h-3v2l5 1 8-5 9-3 6-1h14l12 3 6 1 1 7v8l-2 9-5 7-9 2-6 7-6 1 1 14 1 3 15 7 15 5 4 1h12l9-5 8-10 9-16 2-4v-3l-7-1v-3l5-1 6 3 4 7h-3l-3-3-2 9-8 15-9 11-6 4-6 1-2 5-8 11-3 16 5-5 6-8 1 2-7 11-6 7-1 3 24 4 15 3 2 1v2l-14-1-28-6-14-2v3l87 17-3 1-1 2-74-14-2 4-5 6-7 4-4 1h-12l-11-4-10-9-7-10-12-11-5-8v-2l3 1 6 8 7 6-3-11-1-10-6-2-2-4-3-1-2-3-10-4-10-9-5-5-5-9-3-9-4 4 1-5 7-8 1-1h7v2l-7 3-2 3 5 13 8 10 9 7 4 2 6 1h9l16-8 18-11h2v-16l-8-4-2-2-9-2-6-7-2-5-1-14-3-3-2-1 1-3z" fill="#370F02"/>
<path transform="translate(280,20)" d="m0 0h10l16 8 6 8 4 12 1 19 1 2 4 41 2 37v18l-3 5-6 3-6-1-2-5v-28l-2-29v-8l-28-1-3-1 1 11v36l-2 10-3 5-1 1h-9l-3-4v-23l1-12v-19l-4-13 1-6 3-3 2-10 3-42 7-7z" fill="#F9F7F5"/>
<path transform="translate(581,761)" d="m0 0 2 1-8 9-11 8-11 4-16-1-4-1-2 20-7 57-5 60-1 35 1 6 8 2v2h-8l1 21 15 2h21l10-1v-26l-13 4-13 1-3-2 2-1 18-2 9-3v-33l-4-51-7-60-3-22 1-4 2 5 6 36 6 50 3 41v64l3 9 4 5-7-2-3-6-5 2h-6v-1h-27l-2-1v-2l-6 3-6 8h-2l-1 3-5 2-9 2h-27l-12-3-1 3-5 1-12-1-3-1v2l-14 1-7-2-14-2-2 1h-8v-4l-4-1-2 2-4 2-3 1v-2l-5-1-2-5v-8h-2l-1-7 4-9 2-2h3v-2h3v-2l5 1v-2l4-1 1-2 8-1v-4l-6-5-5-9v-2h-2l-1-3 1-3-6-10v-3h-2v-3l-6-1v-1l25-1h33l1 5 2-1 2 6 2 1 1-4 3 7 2 1-1-2v-8l2-2 1 2 1 10v11l-2 7-13 10-7 8-7 11-3 10 1 8 3 5 2 1h11l-4-5-1-9 4-11 7-10 2 1-7 11-3 10 1 7 4 3 4 1h20l-1-9 3-11 8-11v3l-6 13-1 4v7l4 4 28 1 16-4 4-4 1-5v-19l-1-10v-39l5-58 5-40 6-35v-5l-11-3-4-4-6-5h3l11 7 13 2 19 1 12-6 9-7z" fill="#230D05"/>
<path transform="translate(458,20)" d="m0 0h9l10 4 6 4 7 9 2 6 7 70 2 36v15l-2 5-2 1h-11l-1-1-1-43-1-12v-12l-32-1 2 15v32l-3 11-4 5h-7l-3-1-2-8v-11l1-13v-28l-3-8v-8l4-4 2-15 2-33 2-6 6-5z" fill="#FAFAF9"/>
<path transform="translate(656,371)" d="m0 0h2l1 4v12l-4 26-5 32 40 1 31 1 3 2 31 1 3 1v4l-38 1v11l-4 10-3 4h-2l-2 9h-2l-2 4-6 7h-2l-2 4-9 8-11 6h-3l-2 10-2 9v12l-2 6-6 2-1 2-2-1-2-11 2-2 6 7v2h2l-1-2v-16l4-13v-3l-6 2-8 1-4 2-2-3v-4l-5 1-2-8v-28l4-29h-25l-40-1-4-3v-5l2-2h43l26 1 1-12 7-43z" fill="#B87236"/>
<path transform="translate(701,789)" d="m0 0h10l12 6 8 8 5 10 2 6v23l-5 25-7 22-7 17-11 22-11 16-3 3-23 3-9 1 2-26 3-9 9-13 2-4h2l2-6 7-13 9-27 4-20 1-9v-16l-1-12z" fill="#E59A24"/>
<path transform="translate(730,704)" d="m0 0h49l-3 12-2 9 6-12h1v10l-5 17-3 8 2 2-3 3h-2l-2 4v1l8-7 5-5h2l-1 12-5 13-7 12-9 10 9-6-3 9-6 10h-2l-5-12-7-1-1 6 6 16-1 6-8 10h-2l-2-15-4-9-4-6-7-7-13-6-4-1h-12l-1-6 4-4 8-6 6-7 6-10h2l1-6 5-16 2-9z" fill="#E49A26"/>
<path transform="translate(683,22)" d="m0 0 5 1 6 5 8 11 11 11v2l3 1 2 3 7-10 6-11 9-10 6-3h8l2 5 3 17 2 12 1 16 2 66v22l-4 7-2 1h-7l-3-3-2-16-1-14v-68l1-32-5 3-9 16-7 12-2 5-3 1-7-3-5-5v-2h-2l-7-9-5-4 2 15 1 26v49l-1 22-8 3-9-1-1-135z" fill="#F9F7F6"/>
<path transform="translate(407,21)" d="m0 0h6l3 2 1 3v10l-3 19-1 11v94l-6 2-6-2-5-7-5-12-8-14-10-25-15-43-3-7-2-7v25l1 3 3 39v46l-3 5-2 1h-7l-5-4-3-55v-37l3-28 3-11 4-5 5-1 5 6 4 10 13 31 4 12 7 20 4 8 4 10 6 14v2h2l-2-59v-31l2-15 3-7z" fill="#FAF9F8"/>
<path transform="translate(486,363)" d="m0 0h10l8 6 9 16 4 11 1 3h3l-4-9-1-4 4 2 5 8v2h2l-1-9 2 1 4 8 2-4 2 5 5-1h14l3-9 4-4 1 9 3-6 3-3 1 9h2l1-6 7-11h1l-1 9-1 1v5l1 2-1 11 6 8 1-3-3-1-2-8 1-9v-3h2l1-7 2-2 3-1h10l5 3 5 5 2 4v16l-3 6-3 3h10l9-2 1-3 2 2-5 4-14 4 2 5h2l2-4 3 2 1 7h2v-2h2v10l-2 2h-3l-1-2h-3l-1-6-3 1-1-3-4 1-1-1-2 3-5-6-9-6-12-6-18-4h-16l-15 3-13 5-10 7-5 4-6 8-4 5 1-5v-2l-4 5-2-1 2-4-4-1-3-7v-4l-6-1v-2l-7-1v-1h17l-4-4-2-6v-15l4-7h2v-2l6-3h10l2 1-4-5-7-3-9 3-6 5-4 6-4 13-3 16-5-1-2-4 3-16 4-11 7-9 7-6 5-2h12l-6-2-10 1 1-2 3-1z" fill="#B36E34"/>
<path transform="translate(475,726)" d="m0 0 2 1 6 8 5 5 2 4h2v2l4 2 6 8-1 2 8 5 4 3v2l-3 1 9 7v2l11 2 1 1-1 11-6 35-4 34-5 58v39l1 10v19l-2 7-4 3-16 4-28-1v-1h20l1-9 4-8 2-2v-6h2l-2-5 1-5 6 1-1-2v-45l2-31 2-18v-7l2-6 3-27 1-5 3 1-4-13 2-1-5-9-7-11v-2l4 2 3 2-8-15-4-8-3-7v-3l-3-1-1-5h-2l-4-8-7-11-3-5-3-2z" fill="#B67135"/>
<path transform="translate(386,794)" d="m0 0h8l3 1v63l3 20 5 18 3 11-16 1-3 1h-16l-7-15-7-21-3-15v-28h5v-3l-2 1v-9l-1 2h-2l2-6 2-4-4 3h-2l1-3 8-7 9-6 8-3z" fill="#E59A24"/>
<path transform="translate(437,381)" d="m0 0 3 1v17l2 14 2 10 6 31 3 17 1 19 4 11 5 12 7 8 7 7 9 7 8 3 4 2 2-1 6 8 11 10 6 9 4 5h-9-4-1v-5h-2l-1 3-6 2-1 2h-2v-4l-4 8-4 2h-3v-3l7-6 1-2-7 6h-3l1-4-11 11h-4v-5l-7 8-6 7h-2v3l-3 1 2-10 2-5 7-7-6 3-11 10h-2l-1-3-1-23-2 15-3-1-1-3v-10l1-5-3 1-4 4 1-5h2l1-9-3 1-5 6-2-1 1-3v-17l11 1 4 1 3-6 4 2 1-11v-26l-11-75-3-19z" fill="#B87234"/>
<path transform="translate(624,33)" d="m0 0h7l6 3 5 5 4 8 3 19 1 10v44l-1 1-1 9-4 8-6 6h-8l-8-7-6-10-4-16v-63l3-10 4-5z" fill="#060302"/>
<path transform="translate(543,23)" d="m0 0h32l7 3 2 2v6l-7 3-19-1 1 3 2 27v56l-2 31-3 9-4 5h-7l-5-5v-16l1-37v-59l-1-15-9 1h-15l-3-3 1-4 4-3 5-2z" fill="#FAF8F7"/>
<path transform="translate(556,512)" d="m0 0 11 1 12 6 2 3-1 15-3 10-2 5-13-1-2 1-1 5 2 3 9 2-2 4-3 4-5 1v2l-6 1h-11l-10-4-10-9-6-12-5-14-2-10 3-5 10-6 6-1h10l6 2v22h2l-1-3v-19l4-2z" fill="#E9AD8D"/>
<path transform="translate(684,738)" d="m0 0 2 2 4 20 3 28v14l-1 22-4 22-6 20-8 19-10 17-10 14h-2v3l3 1-5 3v-6h-2l2-4 8-10 10-15-1-5-4-5-2-7 2-37 2-34v-12l1-6h2l1-5 1-3 1-12 3-2 1 6 2 1 1-14 5-14z" fill="#E59A26"/>
<path transform="translate(847,25)" d="m0 0h6l2 2v9l-4 11-7 12-6 11-13 26v15l1 23v21l-3 9-3 1-5-2-4-6-2-10-1-40-4-18-6-17-8-15-2-5h-2l-6-8-4-6-1-6 2-5h10l8 4 4 5 5 10 6 19 5 10 4 4 4-7 10-19 6-15 5-10z" fill="#FBFAFA"/>
<path transform="translate(409,745)" d="m0 0h2l9 29 3 8 1 8 3-3 3 8-1 4-4-6 1 14 3 16 1 17h-3v-4h-3l2 9 1 10h-3l-1-5h-2l5 16 1 5-4 8-5-1-4-8-2-1-1-5h-2l-1-4h-2l-4-10-2-13-1-12v-16l3-29 6-33z" fill="#E49B29"/>
<path transform="translate(656,371)" d="m0 0h2l1 4v12l-4 26-5 32 40 1 31 1 3 2 31 1 3 1v4l-38 1v11l-4 10-3 4h-2l-2 9h-2l-2 4-6 7h-2l-2 4-9 8-11 6h-3l-2 10-2 9v12l-2 6-6 2-1 2-2-1-2-11 2-2 6 7v2h2l-1-2v-16l4-13v-3l-6 2-8 1-4 2-2-3v-4l-5 1-2-8v-28l4-29h-25l-40-1-4-3v-5l2-2h43l26 1 1-12 7-43zm-7 84-2 5-3 23v30l1 4 5-2-1 3 1 3h7l16-5 9-5 9-7 11-11 7-10 8-16 2-5v-5l-68-2z" fill="#370E02"/>
<path transform="translate(397,458)" d="m0 0 7 1 1 6-4 3-15 4 1 4 2 4 2-2 6 9 1 3h2l2 4 3 3 3 1v-2h-2l-4-11v-5l8 12 1 3h2l1 5h2l-1-4-1-5 3 1 6 8 5 3 1 4h2l-4-11 1-4 3 3 5 12 1-5 5 5v2h3l1-27-1-16h1l4 30v26l-1 5-5-1v5h-3l-10-1-11-5-12-7-5-1-4-2-5-4v-2h-2l-2-5-3-1v-3h-2l-4-8-3-5-2-4-1-9 1-2-35 9h-6v-4l18-5 19-5v-3l13-3 5-2z" fill="#B87235"/>
<path transform="translate(745,746)" d="m0 0 3 1v4l-5 5v2l10-12 2 1-5 12-1 5-5 5-3 4 6-2 7-6h2l1-3 4-4 1-2h2l1-5 3-5h2l-1 5-4 6-5 14-5 8v3l8-4 5-2v9l-7 8 9-6-3 9-6 10h-2l-5-12-7-1-1 6 6 16-1 6-8 10h-2l-2-15-4-9-4-6-7-7-13-6-4-1h-12l-1-6 4-4 8-6 6-7 1 2-4 13-2 3 7-6 8-12 11-8 4-2v-3l5-3h3z" fill="#B77236"/>
<path transform="translate(693,702)" d="m0 0h34l2 2-1 4h-2v7l1 6h-2l1 5h-2l-1 13-4 7-1 7-5 6-2 2-2-1-1 4-8 9-3 2h-3l-2-5-1-10-1-1v-14h-2l-2-7 1-8 2-9 3-17z" fill="#010001"/>
<path transform="translate(688,949)" d="m0 0 14 1 10 3 5 4 5 7 2 5v13l-4 6-4 4-5 1 3-6 1-4v-11l-3-9 2 15-2 8-5 6-7 3h-12l-1-4 2-6-1-12-3-9v3l2 6v12l-4 8-5 3-5-1v-15l-4-9-5-6v-2l-4-2-1-4 4-3 15-4z" fill="#E39A28"/>
<path transform="translate(517,432)" d="m0 0 1 4-2 2h-3v2l5 1 8-5 9-3 6-1h14l12 3 6 1 1 7v8l-2 9-5 7-9 2-6 7-7 1-4-4 1-1-5 1-1-1-10-1-6-5-4-8-1-14-3-3-2-1 1-3z" fill="#211007"/>
<path transform="translate(639,347)" d="m0 0h74l1 4-1 2-44 1-5 2v3l-3-1-1-2h-15l-9 11-10 14 1 6 3 9 2 11v6l-6 2v-3l-3 3-7 2h-11l4-5 2-5v-16l-2-6-4-2-5-3h-10l-4 2-2 7h-2l1 8-1 6 2 6 2 1 1 4-4-2-5-7 1-11 4-14 6-9 8-5h9l10 5h4l13-18z" fill="#180B06"/>
<path transform="translate(391,918)" d="m0 0h37l2 9 4-2 8 6 2 3v12l-14 10-6 5h-8l-11-2-16-22-8-13-1-5z" fill="#B77135"/>
<path transform="translate(670,762)" d="m0 0h1v12l-3 8h-2v18l-4 66 1 10 6 9-1 5-7 10-11 14-2 3h2l1 5 1 4h-2v2h2l-1 5-2 1h-3l-3 1-1-2-1 16-3-1 2-30 5-35 7-40 2-9 2-17h2v-11l5-21-1-5 3-9h3z" fill="#B57035"/>
<path transform="translate(493,710)" d="m0 0 5 2 1 5-2 3-26 8-48 14-7 2v7l10 35-1 5-2-1-2-11-9-27-1-7h-2l-5 29-3 22-1 13v16l2 20 6 25 5 16-1 3-9-21-5-21-2-18v-23l1-11-3-1 3-5 1-7 1-5 3-16 2-5 1-4 2-7-8 1-24 7-5-1 1-4 20-6 15-4 5-3-3-3-1-7 3-1 2 10 13-4 7-2 30-9 26-8z" fill="#370E02"/>
<path transform="translate(616,502)" d="m0 0 2 1v13l-4 13-2 4v3l2-1-1 6-5 9-4 5h3l2-4 3-3 2 1-4 7h-2v2l5-3 3-2-1 6h3v-3l3 1 1 7 9 2 25 4 1 1 9 1 6 2 41 8 1 3-1 2-9-1-38-7-10-2-6-2-83-16-5-2 1-4 14 2 28 6 14 2v-2l-28-5-13-3 1-4 10-13 6-5h2l2-4 7-9 7-12z" fill="#B77135"/>
<path transform="translate(875,116)" d="m0 0h17l6 3 4 5 1 7v9l-3 15-4 8-4 4-7-1-5-4v-2h-2l-6-10-2-4-12-6-3-4-1-9 5-5 8-4z" fill="#FBFAF9"/>
<path transform="translate(209,111)" d="m0 0 14 1 8 4 2 5-1 7-4 5-7 6-5 15-4 7-5 3-6-1-5-5v-2h-2l-6-13-3-12v-8l3-5 8-5z" fill="#FBFAFA"/>
<path transform="translate(669,457)" d="m0 0h50l-1 8-8 16-6 9-9 10-7 7-8 4h-2l1-5 1-13-2-4-2 5h-2v-9l2-19-2 1-4 11h-1l-1-11z" fill="#E59C28"/>
<path transform="translate(483,370)" d="m0 0h9l8 5 5 6 4 11 2 8v10l-4 5-9 6-5 2-8 1h-12v-2l-7-1v-1h17l-4-4-2-6v-15l4-7h2v-2l6-3h10l2 1-4-5-7-3-9 3-6 5-4 6-4 13-3 16-5-1-2-4 3-16 4-11 7-9 7-6z" fill="#0C0705"/>
<path transform="translate(712,657)" d="m0 0h19l11 4 6 4 8 9 2 3 3 1-1-12 5 5 3 6 2 7 3-5 4 1 3 7v6l-1 1h-50l-3-8-5-12-4-6-6-5-4-2 1-3z" fill="#E0972A"/>
<path transform="translate(424,793)" d="m0 0 2 3 7 35 8 41 4 32 1 2h24l2 3-1 5-3 2-21 1-2 3h-1v10l-3-1-2-4h-4l-2-5-2 2-1-4 1-3-58 2-19 1h-21l-1-4 1-1 39-3 1-1 41-2h10l-2-7 3 3 1 4 15-1-2-22-7-41-5-25-3-18z" fill="#370E02"/>
<path transform="translate(473,634)" d="m0 0 13 1-2 1v11l-3 1 3 6 2-13 4-1 2 28 1-11 3-8h1l1 6v13h2v-8h2l2 10 1 1 2 12 3 8 5 5-1-12 2-7 3 4 4 12 1 11-7 5-9-1-10-8-10-13-2-4v-3h-2l-3-10-1-2v-8l-4-1 1-7-7 1 2-5 3-9 1-4z" fill="#B77135"/>
<path transform="translate(281,27)" d="m0 0h7l8 6 5 10 2 9 1 10v22l-30-1 1-23 1-17 3-12z" fill="#090503"/>
<path transform="translate(459,27)" d="m0 0 8 1 8 7 4 10 2 12 1 27-31-1 3-43 3-10z" fill="#080403"/>
<path transform="translate(518,934)" d="m0 0 2 1 1 18 16 4h24l-1 2-9 2-12 1 1 1 13-1 13-3 1 3-1 23-10 2h-21l-13-2-3-3-1-19 5-1 4 1v-2l-8-1-2-7z" fill="#B87234"/>
<path transform="translate(779,704)" d="m0 0 3 1-1 1h1l1 10h1l-1 14-3 5v6l-2 1v3h6l1 12-2 9-3 4-4 10h-3v9l-2 1-2 9-4 6-2 4-4-1 2 10 9 24 4 10 6 16 4 9 1 8-3 1-3-5-15-40-7-19v-2l-4-1 1 3-4 6-2 4h-2v2h-3l-1 3h-2v12l-3 16-3 10-3 3-2 6-1-4 6-21 5-27 4-1 2-4 6-8-1-6-5-14 2-6h7l3 5 2 5v3l3-3 7-14-3 2-4 3-2-1 9-10 8-14 4-11 2-12-16 14v-3l7-7-2-2 7-20 1-5v-8l-6 12-1-3 5-18z" fill="#2A0E04"/>
<path transform="translate(405,962)" d="m0 0 9 1v2l5-1 3 1-6 10-3 7v12l1 6-6-2-4-7v-10-4l-1 3v13l2 5-2 1h-7l-8-3-5-7-1-8 2-8-3 7v9l5 10-7-1-3-2v-2h-2l-2-7 1-8 4-6 9-6 12-4z" fill="#E29A2A"/>
<path transform="translate(590,379)" d="m0 0h10l5 3 5 5 2 4v16l-3 6-3 3h10l9-2 1-3 2 2-5 4-12 3h-10l-8-2-6-3-1-5-3-1-2-8 1-9v-3h2l1-7 2-2z" fill="#090504"/>
<path transform="translate(581,761)" d="m0 0 2 1-8 9-11 8-11 4-16-1-4-1-2 20-7 57-5 60-1 35 1 6 8 2v2h-8l1 20h-2l-2 4-2-29v-39l5-58 5-40 6-35v-5l-11-3-4-4-6-5h3l11 7 13 2 19 1 12-6 9-7z" fill="#370E02"/>
<path transform="translate(618,630)" d="m0 0 2 3 1 4v9h2l3 3-1-3 1-3 2 5 4 2v2l-7-1 1 8-2 2-3 9-8 11-3 7-8 9-6 4h-6v2l-5 2-1-4 4-12 8-16h1v7l-1 3h2l2-5 7-10 7-18z" fill="#B87236"/>
<path transform="translate(415,744)" d="m0 0h4l1 10 13 44 4 14 4 20 4 24 1 8 1 19 3 20 19 1v1h-19v2l-5-1-1-2-4-32-9-46-6-30 1-4 3 6-1-5-5-14-8-28z" fill="#E7BC77"/>
<path transform="translate(380,919)" d="m0 0h29l3 5 3 7 4 6v3l-4-2-4-3 2 7 4 6-1 6-2 5h-9l-16-22-8-13z" fill="#E69B24"/>
<path transform="translate(580,446)" d="m0 0h16l39 1 32 1 88 2 3 1v4h-40l-110-3-28-1-2-3z" fill="#FBFBFB"/>
<path transform="translate(572,902)" d="m0 0h1l2 32 1 23 2 20 3 12 1 3h2v2l18 4 3-1 9 2 2-1 2-4v-21l3 3 3 12v7l-2 5-4 2h-12l-24-4-6-3-5-6-2-7v-36l1-37z" fill="#EAC07C"/>
<path transform="translate(656,371)" d="m0 0h2l1 4v12l-4 26-5 32 40 1 31 1 3 3-68-1-21-1-39-1h-16v3l65 2-3 3h-22l-40-1-4-3v-5l2-2h43l26 1 1-12 7-43z" fill="#441C0B"/>
<path transform="translate(652,962)" d="m0 0 5 5 5 10 1 3v15l5 1h7l8-4 3-7v-12l-3-9h2l4 9 1 12-2 9h12l7-3 4-5 2-8-2-16 2 1 3 9v11l-3 8-2 4-5 2-9 2h-7l-5-1-5 1-2 1h-13l-6-1-5 3-7 2-3-1-10 2h-6l-4-2-5 2h-7l-5-1-3 1-5-1-14-2-4-1 1-2-5-1v-2l15 3 14 2h12l4-1 1-5-1-13-2-9 3 4 3 11v12h13l5-3 1-8-3-12-2-6h2l6 17v10l-1 3 9-4 3-4 1-4v-9l-5-11-3-5z" fill="#200D06"/>
<path transform="translate(398,915)" d="m0 0h33l1 5 2-1 2 6 2 1 1-4 3 7 2 1-1-2v-8l2-2 1 2 1 10v11l-2 7-13 10-7 8-7 11-3 10 1 10-2 2-2-5v-12l7-14 2-3-9 2v-2h2v-2h-9l-14 3-12 6-4 5-3 10h-1l-1-7 4-9 2-2h3v-2h3v-2l5 1v-2l4-1 1-2 8-1v-4l-6-5-5-9v-2h-2l-1-3 3-2 8 12 7 9 1 2 11 2h8l11-9 8-5v-12l-4-5-6-3-3 1-2-9-48 1-1 2v-3l-6-1v-1z" fill="#340E02"/>
<path transform="translate(694,697)" d="m0 0h147l1 1v24l-4 1-2-2v-20l-141 1-2-1z" fill="#F8F4F1"/>
<path transform="translate(563,553)" d="m0 0 14 2 28 6 23 4 15 3 13 2 1 1 9 1 6 2 41 8 1 3-1 2-9-1-38-7-10-2-6-2-83-16-5-2z" fill="#FAF8F7"/>
<path transform="translate(646,519)" d="m0 0h2l2 6 4-2 12-2 3-1 1 2-4 11-1 4v18h-2l-6-8-1 2 2 10-7-5 1 8-4-2-8-8h-2v-2l2-1-1-5 7 7-3-9v-10l2 1v2l2-1-3-12-1-2z" fill="#B77135"/>
<path transform="translate(437,382)" d="m0 0h1l1 18 11 72 3 22v26l-1 11h-3l-2-1-2 5-4 1-6-2-6-1 1 2v15l-1 5h-2l-1-6v-15l-2-4-6-1-4-2v-2l-5-2-5-3-1-4 5 1 13 8 11 4 9 1 2 1 1-5 5 1v-31l-9-64-2-11-2-20v-17z" fill="#370E02"/>
<path transform="translate(429,533)" d="m0 0 11 1 4 1 2-1-1 3-2 1 3 2 4 3v3l3-3-2 12 3 5h-2l1 6-2 1-1 7 5-5 9-11 2-2-1 5-9 17-3 5-3 3h-2l-1-3-1-23-2 15-3-1-1-3v-10l1-5-3 1-4 4 1-5h2l1-9-3 1-5 6-2-1 1-3z" fill="#BB793A"/>
<path transform="translate(513,530)" d="m0 0 4 8 4 1 3 7 3 3 3 6 5 4 5 3 2 5 9-2 5 1 2-2v-3l-2-1v-7l1-3 6-3 12-1v-2l-2-1 1-2h2l1-9 2-2-1 12-2 9-4 1-10-1-2 1-1 5 2 3 9 2-2 4-3 4-5 1v2l-6 1h-11l-10-4-10-9-6-12-4-11z" fill="#FBFAF9"/>
<path transform="translate(397,458)" d="m0 0 7 1 1 6-4 3-22 6h-2l6 14 8 12 11 12 3 4-4 1-7-6v-2h-2l-2-5-3-1v-3h-2l-4-8-3-5-2-4-1-9 1-2-35 9h-6v-4l18-5 19-5v-3l13-3 5-2z" fill="#260E05"/>
<path transform="translate(552,786)" d="m0 0 2 1 5 27 6 45 4 42 1 17v28l-1 36-3 1v-24l-13 4-13 1-3-2 2-1 18-2 9-3v-33l-4-51-7-60-3-22z" fill="#360E02"/>
<path transform="translate(441,297)" d="m0 0 10 1 17 6 14 4 13 5v4l-8-1-21-6-7-3-17-4-2 4-10 9-9 9-6 5-6 7-8 7-5 5-4-1 1-4 33-33 8-7z" fill="#F4EDE7"/>
<path transform="translate(466,908)" d="m0 0 3 1-1 4-35 2-60 2-19 1h-21l-1-4 1-1 14-1z" fill="#F9F7F5"/>
<path transform="translate(383,612)" d="m0 0h6l8 2 112 17 5 2-1 4-21-3-48-7-60-9-2-1z" fill="#FAF9F8"/>
<path transform="translate(483,370)" d="m0 0h9l8 5 5 6 4 11 2 8v10l-4 5-7 5h-5v-2l5-2 5-6 2-1v-9l-2-10-5-6-2-4-7-4-8 2-6 4-6 8-4 13-3 16-5-1-2-4 3-16 4-11 7-9 7-6z" fill="#281309"/>
<path transform="translate(492,713)" d="m0 0 4 1v3l-58 18-63 18-5-1 1-4 20-6 27-7 44-13z" fill="#FBFAF9"/>
<path transform="translate(931,94)" d="m0 0 7 1 4 3v7l-3 7h-2l-2 4-7 4-5 2h-6l-5-3-1-2v-7l6-8 8-6z" fill="#F7F4F1"/>
<path transform="translate(367,822)" d="m0 0 1 4-4 9-1 5v11l3 19 7 24 4 10v2h14l15-1 2 2-16 1-3 1h-16l-7-15-7-21-3-15v-28h5l2-5z" fill="#E7BD7C"/>
<path transform="translate(908,74)" d="m0 0h7l4 4v11l-4 8-4 5-6 4h-6l-4-4-1-2v-9l5-10 7-6z" fill="#F9F7F5"/>
<path transform="translate(515,303)" d="m0 0 2 1-6 7-4 8-1 4 8-6-2 5-1 13 3-3 5-12 4-8h2l2-4 5-1-2 4-3 5-3 7-4 8v5l2-1 3-6 2-2 2-5h2l-1 6-1 2 4-4 5-2 1-2 7-1v4l-9 6-5 6-4 8-3 7-2 3-3-1-1-6h-2l-1-4v-8l-5 1-2-4v-9l-5 1 1-9 8-11z" fill="#A86630"/>
<path transform="translate(149,103)" d="m0 0 9 1 10 5 5 6 1 6-2 4-5 2h-11l-11-6-4-6-1-5 3-5z" fill="#FAFAF9"/>
<path transform="translate(162,78)" d="m0 0h7l7 3v2l4 2 5 7 1 3v9l-4 3h-7l-8-4-6-7-3-6v-8z" fill="#FBFAFA"/>
<path transform="translate(490,375)" d="m0 0 7 3 4 4v2h-12l-6 2v2l-3 3-2 4v15l3 7 3 4h-10l-10-3 1-10 4-15 3-6 7-8 6-3z" fill="#FAFAF9"/>
<path transform="translate(641,347)" d="m0 0h72l1 4-1 1-71 1-2 4-7 10-13 18-3 1-2-4 10-13 13-18z" fill="#F3EBE4"/>
<path transform="translate(517,549)" d="m0 0 2 3 6 10 8 7 10 4h17v-2l5-2 5-7-9-1-3-4 2-6 7-1 5 1-4 3h-5v3l87 17-3 1-1 2-74-14-2 4-5 6-7 4-4 1h-12l-11-4-10-9-3-4v-6z" fill="#4A210E"/>
<path transform="translate(493,710)" d="m0 0 5 2 1 5-2 3-26 8-48 14-7 2-2 3-1-3-3-2 48-14 36-11h2l-1-3-10 2-46 14-29 8-2-1 3-2-3-3-1-7 3-1 2 10 13-4 7-2 30-9 26-8z" fill="#48200E"/>
<path transform="translate(595,372)" d="m0 0h9l5 2v2l4 2-1 8h2l1 2 6 2 3 11 1 13-9 3h-11l4-5 2-5v-16l-2-6-4-2-5-3h-12l3-5z" fill="#F9F7F6"/>
<path transform="translate(876,83)" d="m0 0 6 1 4 4 1 9-4 10h-2l-1 3h-2v2l-3 1h-7l-4-4-1-3v-7l5-10 6-5z" fill="#F9F6F4"/>
<path transform="translate(196,80)" d="m0 0h9l9 7 3 5 1 9-4 6-2 1h-6l-8-6-5-8-1-2v-7z" fill="#F9F8F6"/>
<path transform="translate(446,917)" d="m0 0h15v1l-9 1v29l-2 2h-3l-5 5-6 5h-2v2l-5 5-5 7-2 6v12l2 4v3l4 1v-2l-3-1v-3h2v2l4 2 2 3-1 1h-11l-5-4-2-7 1-9 5-10 8-11 10-9 7-5 1-6z" fill="#E7BC77"/>
<path transform="translate(656,366)" d="m0 0 3 3 2 16v45l-2 15h-9l1-13 6-36 1-9v-16h-2v19l-3 18h-1l-1-7v-13l2-14 1-4z" fill="#B87436"/>
<path transform="translate(923,127)" d="m0 0h9l4 2 2 3v7l-2 4-8 6-4 1h-10l-5-4v-8l3-5 8-5z" fill="#F9F7F6"/>
<path transform="translate(159,134)" d="m0 0h12l8 4 3 3 1 6-3 5-7 3h-7l-9-3-5-6v-8l4-3z" fill="#FBFAF9"/>
<path transform="translate(537,408)" d="m0 0h26l15 4 9 4 11 7 6 5 5-1 6 7 1 4-3-3v-2l-3 1-1-3-4 1-1-1-2 3-5-6-9-6-12-6-18-4h-16l-15 3-13 5-10 7-5 4-6 8-4 5 1-5v-2l-4 5-2-1 6-8 5-3h2l2-4 12-9 13-6z" fill="#360E02"/>
<path transform="translate(781,746)" d="m0 0h2l-1 12-5 13-7 12-3 1v-7l-7 4-6 2 1-5 5-10 5-12 4-6 3-2 3 2-3 3h-2l-2 4v1l8-7z" fill="#E39C2E"/>
<path transform="translate(730,704)" d="m0 0 10 1v1h-5l-1 19-3 17-6 18-10 16-7 7-2-2 3-5 4-14 5-8h2l1-6 5-16 2-9z" fill="#F0C982"/>
<path transform="translate(402,396)" d="m0 0 2 2-8 14-2 4-2 18h-1l-1-9-1 4-5 2v28l8-2h5v2l-11 2-9 3h-4l1-15 4-14 6-15 5-8 7-10 5-5z" fill="#EAC280"/>
<path transform="translate(678,648)" d="m0 0h2l3 17 1 18-1 23-2 12-4 20-6 12-5 4 4-22 3-9 6-34v-32z" fill="#F7C65D"/>
<path transform="translate(717,701)" d="m0 0h119v1l-56 1-1 1h-49l-1 19-5 20-4 11h-2l-2 5-7 10-6 6-9 2-2-5 2 1v2l7-4 7-8 1-3 3-1 2-3h2l2-7 1-5 3-5 2-13h2l-1-5 1-4-1-5 1-4h2l-1-5-10-1z" fill="#210E06"/>
<path transform="translate(707,661)" d="m0 0 6 2 7 7 5 10 4 13h50l-1-9-2-4h-3l-2 5-2-1-4-12-5-7 4 2 6 8 7 3 3 5 1 2v9l3 1 56 1v1h-145v-1h33l-1-2-2 1-1-9v-2l-3-1v-2l-2-2v-5l-2 1-3-6-2-1v-2l-6-2z" fill="#633C21"/>
<path transform="translate(425,627)" d="m0 0h8v2h7v1l-12 1-1 5-5 12-4 12-3 14-3 18v20l2 14 1 4 10-2 4 1-10 4-7 1-2-7-2-17v-27l2-14 3-8 6-21z" fill="#E5B973"/>
<path transform="translate(543,497)" d="m0 0h5l1 2 21 9 8 3 12 1-5 7-4-2-1-3-5-1-8-3h-13l-9 2-4-1h-13l-12 4-4 1v2l-3 1v5l-3-1-5-4v-2l8-2 16-7 14-8z" fill="#B36E33"/>
<path transform="translate(647,575)" d="m0 0h8l-3 1 3 5 2 6 5 8 7 11v2h2l5 9v3h2l3 10 2 2v6h2l6 22 2 16v19l2 2-2 4 16 1v1h-16l-2 14-2 11-2 2 1-14 2-9v-9l1-15-1-12-1-2-1-9-3-11-2-2-5-15-10-21-10-15-3-3-4-7-5-6 4 1-3-4z" fill="#2D0E03"/>
<path transform="translate(506,294)" d="m0 0 4 1v2l9 3-1 3-1-2-9 1-9 3-6 3 5 4v6l-3 2-7-1-9-1-6 3-12 11-8 7-10 13-8 14-3 4-1-4-6 5-8 3-3-1h2v-2h4l1-3 7-1 1-3 3-2 1-3h2l1-4 5-8h2l1-4 4-4h2l1-4 5-4h2l2-5 7-5 4-4 7-2 1-2 16 4v-4l-7-2 2-1v-3h2v-2h2v-2l9-3 3-2z" fill="#280E04"/>
<path transform="translate(749,796)" d="m0 0 4 1 7 17 7 20 5 13 8 21 4 9 1 8-3 1-3-5-15-40-13-34-2-6z" fill="#FAF9F8"/>
<path transform="translate(542,411)" d="m0 0h16l10 2v2l4 1-30 1-16 3-10 3 1 4h2l1 3-4-1-5-1-4 4 2 3h-7l-5 4-5 6-1-4 4-6 6-7 10-7 10-5 14-4z" fill="#E7BB76"/>
<path transform="translate(736,819)" d="m0 0h2v23l-5 25-7 22-7 17-11 22-11 16-2 2h-7l6-8 4-6 4-5 2-5 4-4 8-15 11-27 6-20 2-15z" fill="#E9BD74"/>
<path transform="translate(405,962)" d="m0 0 9 1v2l-16 1-9 3-1 1h2l-1 5v11l3 7 3 4-7-1-5-7-1-8 2-8-3 7v9l5 10-7-1-3-2v-2h-2l-2-7 1-8 4-6 9-6 12-4z" fill="#D7A464"/>
<path transform="translate(435,608)" d="m0 0 1 2-2 3-1 5 14 1 41 6 25 4 4 3-1 6-1 1h-9l-33-5-3-2 1-1 16 1 23 4 3 1v-4l-30-5-53-8v-7z" fill="#451C0B"/>
<path transform="translate(415,744)" d="m0 0h4l1 10 13 44 4 14 4 20 4 24 1 8v16h-1l-1-12v-6h-2v-7l-3-12-1-1-4-27-3-6-2-14-5-13-9-31z" fill="#F6C55E"/>
<path transform="translate(691,797)" d="m0 0h1v27l-4 22-6 20-8 19-10 17-10 14h-2v3l3 1-5 3v-6h-2l2-4 8-10 10-15 8-16 6-16 5-23 2-17 1-18z" fill="#E3B672"/>
<path transform="translate(568,982)" d="m0 0h2l3 9 4 5-7-2-3-6-5 2h-6v-1h-27l-2-1v-2l-6 3-6 8h-2l-1 3-5 2-9 2h-27l-6-2v-2h29l16-4 4-4 1-5h2l1-4 17 3h21l10-1v-2z" fill="#230D05"/>
<path transform="translate(578,444)" d="m0 0h43l26 1v1l-6 1h-61v3l65 2-3 3h-22l-40-1-4-3v-5z" fill="#43200F"/>
<path transform="translate(379,473)" d="m0 0h4l1 8-1 1 1 6 4 1 3 6 3 2v2l3 3 2 3 3 1v2h2l2 4 5 2 2 4 6 3 3-1 6 5 11 1h3l4-8h3v9l-5-1v5h-3l-10-1-11-5-12-7-10-9-9-10-9-15-3-7v-3z" fill="#B77D49"/>
<path transform="translate(710,480)" d="m0 0 1 3-2 7h-2l-2 4-6 7h-2l-2 4-9 8-11 6h-3l-2 10-2 9v12l-2 6-6 2-1 2-2-1-2-11 2-2 6 7v2h2l-1-2v-16l4-13 2-6 5-4 10-6 10-9 9-10z" fill="#1E0E07"/>
<path transform="translate(639,347)" d="m0 0 2 2-8 10-13 18-12-6v-2l-11 1 3 2-6 2-5 5v2l-3 1-2 7h-2l1 8-1 6 2 6 2 1 1 4-4-2-5-7 1-11 4-14 6-9 8-5h9l10 5h4l13-18z" fill="#2C1409"/>
<path transform="translate(729,571)" d="m0 0 4 1h3 4v24h6l2 1v2l-3 1-7-1v-2h-2l-1-2-2 4-5 1-3-1-1-9h3v6h4v-8l-4-7-1-1v-7z" fill="#120A05"/>
<path transform="translate(641,877)" d="m0 0h1v8l-2 10h3v8l-3 27-2 4-1-3-3 9h-3v-14l5-24z" fill="#F6C660"/>
<path transform="translate(561,406)" d="m0 0 8 1 8 2 4-1 4 5 10 5 14 2 2 6h2l2-4 3 2 1 7h2v-2h2v10l-2 2h-3l-1-2h-3l1-3-2-4-5-4-4 1-10-8-10-6-16-5-9-2z" fill="#B77135"/>
<path transform="translate(300,599)" d="m0 0 6 2 3 7v11l-3 7-7 1-4-6v-14l2-6z" fill="#FAF9F9"/>
<path transform="translate(440,555)" d="m0 0 2 2-1 4v10l1 3 2 1 1-15 1-5h1l1 31 8-7 8-6 4-1-6 7-5 5h-2l-2 4-8 9-8 11h-2l1-5 4-4 1-3h2l3-9 1-1h-3l-2-6-2-1v-3h-2l-1-6-1-8v-3z" fill="#210F07"/>
<path transform="translate(231,494)" d="m0 0 8 1 4 8v11l-3 6-7 3-3-1v-26z" fill="#F8F5F2"/>
<path transform="translate(787,604)" d="m0 0 6 1 3 2 2 5v12l-2 5-7 4-4-2v-26z" fill="#F2E9E1"/>
<path transform="translate(326,598)" d="m0 0h6v2l4 1 2 9v9l-3 5-4 3h-5l-1-2v-24z" fill="#F6F1EC"/>
<path transform="translate(754,572)" d="m0 0h5l4 6v16l-5 6-5-1-3-5-1-4v-8l3-9z" fill="#22150B"/>
<path transform="translate(396,461)" d="m0 0h6l-1 4-47 13-13 3h-6v-4l18-5z" fill="#FBFAF9"/>
<path transform="translate(520,286)" d="m0 0 10 5 13 4 11 1 12 2 11 2 4 1 15 4 4 3 12 4 19 10v2l4 1 5 3 2 3 6 3v2h2l3 3-1 3-14-11-16-10-19-9-20-7-17-4-24-4-14-4-9-5z" fill="#2A0E04"/>
<path transform="translate(844,475)" d="m0 0h6l3 4 1 14-2 7-3 3-5-1-3-4-1-3v-10l3-9z" fill="#F6F2EF"/>
<path transform="translate(521,409)" d="m0 0 4 1-1 2-16 8-10 8-3 3-5 2-2 4-2 1-4-2-3-7v-4-1l17-3 8-5 3-1 2-4 2-1 2 2h4z" fill="#B77136"/>
<path transform="translate(220,902)" d="m0 0 4 1 3 4 1 4v15l-4 4h-5l-3-3-2-5v-8l3-10z" fill="#F3ECE5"/>
<path transform="translate(757,473)" d="m0 0 5 1 4 3 2 5v12l-6 7-6 1-1-2v-25z" fill="#F4EDE7"/>
<path transform="translate(369,334)" d="m0 0 7 1 3 3 2 8v10l-5 5-3 2-5-1v-24z" fill="#FAF8F7"/>
<path transform="translate(268,771)" d="m0 0 5 1 3 5 1 10-3 9-3 3-5-1-3-5v-13l3-8z" fill="#1A1009"/>
<path transform="translate(386,794)" d="m0 0h8v2h2v8h-1v-6h-9l-11 6-4 2v2l-5 5-3 6 3-2 3 1-4 2v3h-4l-1 5h-1v-9l-1 2h-2l2-6 2-4-4 3h-2l1-3 8-7 9-6 8-3z" fill="#E4BB7C"/>
<path transform="translate(252,771)" d="m0 0 4 1 3 2 1 4v15l-3 5-6 1-3-3-1-3v-12l2-8z" fill="#F4EDE7"/>
<path transform="translate(741,336)" d="m0 0 4 1v2l3 1 1 5v12l-3 6-1 1h-6l-3-5v-14l2-7z" fill="#EDE1D6"/>
<path transform="translate(406,743)" d="m0 0h7l3 8 10 35-1 5-2-1-2-11-9-27-1-7h-2l-5 29-3 13-1 8-3 1-3-2 3-5 1-7 1-5 3-16 2-5 1-4 2-7z" fill="#230D05"/>
<path transform="translate(711,962)" d="m0 0 2 1 3 9v11l-3 8-2 4-5 2-9 2h-7l-5-1-7 1-13-1v-2h10l8-4 3-7v-12l-3-9h2l4 9 1 12-2 9h12l7-3 4-5 2-8z" fill="#260E05"/>
<path transform="translate(629,574)" d="m0 0 11 1 8 2 3 4-1 2-2-1 7 8 3 5 5 7-1 2-5-2-12-11-6-6v-2l-4-2-2-4h-2v-2z" fill="#B77135"/>
<path transform="translate(682,959)" d="m0 0 6 1 1 3 4 2 5 13-1 11-2 4 5 1v1h-12l-1-4 2-6-1-12-3-9-3 1-1-4z" fill="#B77235"/>
<path transform="translate(432,847)" d="m0 0 2 2 6 35 2 22-1 1h-15v-4l9-1 3-8-2-14-3-5v-3h-2l-1-3v-12l1-9z" fill="#B77E49"/>
<path transform="translate(552,794)" d="m0 0 2 2 8 66 2 21v15l-2 3-1-5-1-20-2-17-1-3v-7l-2-16v-8l-2-3v-9l-2-6-1-6v-6z" fill="#B77C47"/>
<path transform="translate(488,738)" d="m0 0 7 6 4 4v2l4 2 6 4 3 3 5 3 4 3v2l4 2 4 6 8 1v1h-14l-12-8 2-1-5-5-10-5 3-2-7-9-2-1v-2h-2l-3-5z" fill="#E4B66D"/>
<path transform="translate(657,822)" d="m0 0h1v7l-5 25-5 31-5 38-2 26-3-1 2-30 5-35 7-40z" fill="#370E02"/>
<path transform="translate(295,901)" d="m0 0 5 1 2 1v2l-6-1-2 2-1 19 6-1v-4l-3 1-1-3 2-2h5l1 5 2 1v-2h2v6l5 1-1-11-5-7 1-6 2-2h4l1 4-5-2 1 7 5 7v9l-2 3h-6l-2-2v-3l-4 1-2 4h-5l-4-5-1-2v-11l3-8z" fill="#E7D5C5"/>
<path transform="translate(865,734)" d="m0 0 5 1 3 3 1 7v19l-3 1-1-14-5-1v13h-4v-16l1-11z" fill="#EADCD0"/>
<path transform="translate(465,906)" d="m0 0h5l2 3-1 5-3 2-21 1-2 3h-1v10l-3-1-2-4h-4l-2-5-2 2-1-4 1-3 2-1 35-2 1-3h-23v-1h19z" fill="#33190B"/>
<path transform="translate(313,632)" d="m0 0h5l4 4 1 7v19h-3v-14l-6-1v12h-4v-14l1-11z" fill="#EADBCE"/>
<path transform="translate(380,919)" d="m0 0h29v1l-23 1 1 5 6 11v2h2l2 4 1-5 4 5 2 3 4 2 4 8 1 3h-8l-16-22-8-13z" fill="#E7BF7E"/>
<path transform="translate(252,461)" d="m0 0h6l3 4 1 8v17l-3 1v-14h-5l-2 13-3-1v-15l2-12z" fill="#EEE2D7"/>
<path transform="translate(517,549)" d="m0 0 2 3 6 10 8 7 10 4h17v-2l5-2 4-5 3-1-2 4-5 6-7 4-4 1h-12l-11-4-10-9-3-4v-6z" fill="#491F0C"/>
<path transform="translate(473,961)" d="m0 0 5 1v3h-3v2h-4l-1 2-5 5-4 8-2 8 1 9-1 1h-20v-1h13l-1-2 1-11 7-12 8-8h2v-2h5z" fill="#B16D34"/>
<path transform="translate(573,914)" d="m0 0h1l2 43 2 20 3 12 1 3h2l-1 2-6-3-4-6-1-6v-33z" fill="#F7C65D"/>
<path transform="translate(810,441)" d="m0 0 5 1 3 5 1 11v12h-3v-13h-6v10l-1 2h-3v-16l1-10z" fill="#F6F2EE"/>
<path transform="translate(458,582)" d="m0 0 2 1-4 8-3 3h-2l-2 5-8 11-2 6 17 2 16 3v1h-11l-28-4v-5l9-13 8-10 5-6z" fill="#E8BD7A"/>
<path transform="translate(429,533)" d="m0 0 11 1-1 8h3v8l5-2-2 10-3 1-2-3-6 5 1-5h2l1-9-3 1-5 6-2-1 1-3z" fill="#F0D19C"/>
<path transform="translate(181,738)" d="m0 0h6l3 2 2 19v9h-3v-14h-7v12h-3l-1-15 1-2 1-10z" fill="#F7F2EF"/>
<path transform="translate(327,632)" d="m0 0h7l4 4-1 7-3 1 4 10v8l-3-1-2-11-1-2-3-1 1 10-1 3h-3v-26z" fill="#F2E9E1"/>
<path transform="translate(298,335)" d="m0 0h6l4 3v6l-2 3h-2l4 8 1 9h-4l-2-12-1-2-3-1 1 5v8l-4 1v-16l1-11z" fill="#F1E8DF"/>
<path transform="translate(850,734)" d="m0 0 6 1 2 3v7l-4 2 3 5 2 6v5l-3 1-3-13-4-2 1 3v10l-3 1-1-2v-14l1-12z" fill="#F3ECE5"/>
<path transform="translate(874,768)" d="m0 0 7 1 3 4-1 5-1 2h-3l4 8 1 8-3 1-3-13-3-2v14l-4-1v-15l1-11z" fill="#F0E6DD"/>
<path transform="translate(437,381)" d="m0 0 3 1v17l2 14 2 10 6 31 3 17 1 19 1 7-2 3-12-81-3-19z" fill="#B77237"/>
<path transform="translate(351,335)" d="m0 0 3 1 6 15 1 2 1-16 1-2h3l-1 27h-3l-6-11-2-6v18h-4v-26z" fill="#EDE0D5"/>
<path transform="translate(159,738)" d="m0 0h3l3 4v2h3l2-5 4-1 1 1 1 7v17l-1 4h-2l-1-5v-18l1-3h-2l-2 5h-4l-2-1v20h-4z" fill="#E4D2C0"/>
<path transform="translate(803,904)" d="m0 0h7l3 3v9l-4 4h-4v10l-1 2-3-1-1-15 1-10z" fill="#EFE4DB"/>
<path transform="translate(388,935)" d="m0 0 4 5 10 13 4 6-1 4-14 3-12 6-4 5-3 10h-1l-1-7 4-9 2-2h3v-2h3v-2l5 1v-2l4-1 1-2 8-1v-4l-6-5-5-9v-2h-2l-1-3z" fill="#220E06"/>
<path transform="translate(818,903)" d="m0 0h5l4 6v7l-4 4h-4v10l-4 1-1-15 1-9z" fill="#F1E8E0"/>
<path transform="translate(487,719)" d="m0 0 2 1-2 3-26 8-45 13-2 3-1-3-3-2 48-14z" fill="#49220F"/>
<path transform="translate(233,902)" d="m0 0 7 1 3 3-1 7-2 4 3 6 1 8-3 1-3-13v-2l-4-1v14l-3-1v-15l1-11z" fill="#F6F1ED"/>
<path transform="translate(769,571)" d="m0 0 5 1 4 3v9l-4 4h-4v10h-4l-1-14 1-9z" fill="#F1E9E1"/>
<path transform="translate(861,474)" d="m0 0 5 2 3 3v5l-3 3h-2l4 9 1 7h-3l-3-14h-4l1 3v9l-3 1-1-4v-11l1-12z" fill="#F6F2EE"/>
<path transform="translate(801,441)" d="m0 0 3 1-1 27h-3l-7-14-2-7v21h-3l-1-10v-12l2-5h2l6 14 2 4v-14z" fill="#E5D1C0"/>
<path transform="translate(468,472)" d="m0 0h7v2l-7 3-2 3 5 13 8 10 9 7 4 2 6 1 1 6-6-2-10-5-12-12-5-9-3-9-4 4 1-5 7-8z" fill="#350E02"/>
<path transform="translate(644,352)" d="m0 0h69v1l-44 1-5 2v3l-3-1-1-2h-15l-9 11-9 13-4 1 2-4 8-11 9-13zm-22 29 1 2-2-1z" fill="#784B29"/>
<path transform="translate(422,900)" d="m0 0 3 3 1 4h14l-1 3-59 2h-23v-1l15-1 1-1 41-2h10z" fill="#512A14"/>
<path transform="translate(907,734)" d="m0 0 3 1v12h6v-12h2l1 2v25l-3 1-1-11-5-2v13h-4l-1-16 1-12z" fill="#E7D7C9"/>
<path transform="translate(736,819)" d="m0 0h2v23l-5 25-7 22-7 17-3-1 3-9 8-20 6-20 2-15z" fill="#E3B571"/>
<path transform="translate(783,571)" d="m0 0 5 1 3 2 1 3v7l-4 4h-5v11h-3l-1-15 1-10z" fill="#F8F6F4"/>
<path transform="translate(717,701)" d="m0 0h119v1l-56 1-1 1h-44v-1l-18-1z" fill="#754525"/>
<path transform="translate(709,410)" d="m0 0 3 3 6 16 3 14v4h-31l-26-2 1-12h2v11h26l25 1-3-15-6-17z" fill="#D29E60"/>
<path transform="translate(281,632)" d="m0 0h3l1 11 4 1 1-12h3v27l-3 1v-12h-5l-2 12-3-1-1-15h2z" fill="#E8D8C9"/>
<path transform="translate(656,371)" d="m0 0h2l1 4v12l-4 26-5 33-3-1 1-12 7-43z" fill="#370E02"/>
<path transform="translate(752,821)" d="m0 0 2 1-4 6-2 4h-2v2h-3l-1 3h-2v12l-3 16-3 10-3 3-2 6-1-4 6-21 5-27 4-1 2-4z" fill="#270E05"/>
<path transform="translate(733,704)" d="m0 0 7 1v1h-5l-1 19-3 17-6 18-5 8-4-2 2-4h2l1-6h2l1-8 3-5 3-13 1-3v-21z" fill="#F6C65D"/>
<path transform="translate(770,903)" d="m0 0h3v13h6v-11l2-1 1 2v24l-3 1-1-11-6-1 1 8-1 4h-3l-1-14 1-13z" fill="#E9DACC"/>
<path transform="translate(787,904)" d="m0 0h3l-1 12h6l-2-10-1-2 5 2 2 13v13l-4 1v-14l-6 1v11h-3l-1-15 1-10z" fill="#EFE4DA"/>
<path transform="translate(686,371)" d="m0 0 6 4 3 8 4 4v2h2l5 10h2l2 9h3l2 6 2 1v6l4 6 2 16-2 4-5-21-5-13-8-15-15-21-2-1z" fill="#260E05"/>
<path transform="translate(324,335)" d="m0 0 4 2 2 3 3 1 2-5 4-1 1 3v25h-3v-25h-2l-2 7h-3l-1-4h-2v22h-3z" fill="#F5F0EB"/>
<path transform="translate(300,461)" d="m0 0h2l-1 28-3-1-6-14-2-6v20l-4 1v-24l3-3 4 6 5 14 1-20z" fill="#EFE5DC"/>
<path transform="translate(620,973)" d="m0 0 3 4 3 11v12 3l-5 1-7 1-7-1-3 1-5-1-14-2-4-1 1-2-5-1v-2l15 3 14 2h12l4-1 1-5-1-13z" fill="#1F0D06"/>
<path transform="translate(520,980)" d="m0 0 11 2h14l13-1 7-1 1 5-10 2h-21l-13-2-2-1z" fill="#E6BB79"/>
<path transform="translate(707,928)" d="m0 0 2 1-1 5-1 2h-2l-2 5-4 4-1 3 11 1 6 4v2l-9-3-14-2-14 1-15 4-3-1 5-3 11-3 18-2 8-10z" fill="#360E02"/>
<path transform="translate(667,453)" d="m0 0 51 1v2h2v11l-4 10-3 4h-2l1-5 6-14 1-5h-31l-19-1z" fill="#4C2611"/>
<path transform="translate(876,904)" d="m0 0 3 1-1 2-1 9h6l-1-9-1-3 4 2 2 12v15h-3v-14h-7l1 2v8l-4 2-1-15 1-10z" fill="#F3EDE6"/>
<path transform="translate(844,767)" d="m0 0 2 1 1 12 5 1v-12h3v27h-3v-12l-6-1v13h-3l-2-13 1-3 1-12z" fill="#F7F4F0"/>
<path transform="translate(495,372)" d="m0 0 5 3 5 6 4 11 2 8v10l-4 5-7 5h-5v-2l5-2 5-6 2-1v-9l-2-10-5-6-2-4-7-4 2-2z" fill="#2E150A"/>
<path transform="translate(647,960)" d="m0 0h2v2l4 2 5 9 3 7v9l-3 7-3 3h-6l1-4 3 2 1-7v-14z" fill="#E8BC74"/>
<path transform="translate(299,737)" d="m0 0 3 1v10l-1 2h7v-11l2-1 1 26-1 2h-2l-1-11-5-2v11l-4 1-1-14 1-13z" fill="#EFE5DB"/>
<path transform="translate(684,642)" d="m0 0h2l5 18 2 16v19l2 2-2 4 16 1v1h-16l-2 14-2 11-2 2 1-14 2-9v-9l1-15-1-12-1-2-1-9-3-11-1-5z" fill="#1D0D06"/>
<path transform="translate(221,462)" d="m0 0h3v12h5l1-12 3 1v26h-3v-11l-6-1v12l-3 1-1-12-1-3h2z" fill="#F2EAE3"/>
<path transform="translate(311,461)" d="m0 0 5 1-1 4v-2l-6 1v21l5-1 1-5-4 1 1-4 5-1 1 10-2 3-6 1-4-4-2-4v-10l2-7z" fill="#EADACB"/>
<path transform="translate(475,331)" d="m0 0 4 1 1 9-12 7-6 6h-2l1-6 6-10z" fill="#260E05"/>
<path transform="translate(367,599)" d="m0 0 2 1-1 27-4-4-6-13-1 17h-3v-25l1-2 3 1v4h2l5 15 1-20z" fill="#FAF8F7"/>
<path transform="translate(893,571)" d="m0 0h2l-1 28-3-1-7-16-2-3 1 7v13h-3l-1-9v-10l1-7 3-1 8 21 1-21z" fill="#F9F6F4"/>
<path transform="translate(612,327)" d="m0 0 5 2 5 4 6 10 2 7-4-2-9-7-7-4v-9z" fill="#370E02"/>
<path transform="translate(824,572)" d="m0 0h3l1 9h2l2-5 2-4h3l-1 4-4 5-1 3h2l2 11 1 5-3-1-2-6-1-7-3-1v15l-4-2z" fill="#EFE4DB"/>
<path transform="translate(506,294)" d="m0 0 4 1v2l9 3-1 3-1-2-9 1-9 3-6 3 5 4v6l-3 2-7-1-9-1h-2l2-5 16 4v-4l-7-2 2-1v-3h2v-2h2v-2l9-3 3-2z" fill="#290E04"/>
<path transform="translate(260,901)" d="m0 0h2l1 13 5 1v-12h2l1 3v23h-3v-11h-6v12h-3l-1-12-1-3h2v-13z" fill="#F8F6F3"/>
<path transform="translate(837,441)" d="m0 0 3 1v9h2l2-5 2-4h3l-2 5-4 7h2l3 12-1 4-2-2-3-13-2-1v15l-4-1v-26z" fill="#EDE1D7"/>
<path transform="translate(584,543)" d="m0 0 3 1-5 7 2 1 16 2 7 1 2-4 3-3 2 1-4 7h-2v2l5-3 3-2-1 6h3v-3l3 1 1 7 3 1-9-1 3-1v-2l-28-5-13-3 1-4z" fill="#B77D48"/>
<path transform="translate(266,461)" d="m0 0h6l5 5-1 6-5 3h-4l1 11-1 3h-2v-27z" fill="#DEC6B0"/>
<path transform="translate(747,793)" d="m0 0h7l3 5 2 5v3l5-2 1 2-2 3-4-1-2 1-5-12-3-1 4 13 3 8-1 3-2-1-2 4-3 2 2-4 1-6-6-16z" fill="#4B210E"/>
<path transform="translate(796,337)" d="m0 0 4 2 1 18 1 4h2l2-4 1-19 2 1v16l-3 8-3 2-4-1-3-4-1-4v-11z" fill="#ECE0D5"/>
<path transform="translate(698,786)" d="m0 0h9l11 4 8 5 8 8 5 10 2 7v11l-2 6h-1l-1-18-5-13-9-10-12-6-14-2z" fill="#370E02"/>
<path transform="translate(442,965)" d="m0 0v3l-5 10-1 3v9l3 6 13 2v1h-17l-5-4-1-7 4-12 6-9z" fill="#EABE74"/>
<path transform="translate(476,642)" d="m0 0 1 2-3 6 3-2h3l-2 9h2l1-3h1l1 7 1-2h2v10h2l4 11 2 4-4-2-6-10v-3l-4-1v-8l-4-1 1-7-7 1 2-5z" fill="#370E02"/>
<path transform="translate(403,516)" d="m0 0 5 1 13 8 3 1 5 5 1 4v15l-1 5h-2l-1-6v-15l-2-4-6-1-4-2v-2l-5-2-5-3z" fill="#260F06"/>
<path transform="translate(439,930)" d="m0 0 4 2 1 2v12l-14 10-6 5h-8l-7-1v-1l14-3 2-3h2v-2l6 1v-3h2v-2h3l1-4 2-11h-2z" fill="#B87D47"/>
<path transform="translate(714,655)" d="m0 0h21l8 4 5 3v2l5 1 3 3 4-2 1 12-4-1-7-9-6-5-9-4-4-1h-19l-4 1-1 2-2-1 1-3z" fill="#2A0E04"/>
<path transform="translate(618,740)" d="m0 0v3l-7 9-3 5-10 13-9 12-6 5 2-5 3-6 10-13 9-10z" fill="#F7C65D"/>
<path transform="translate(542,411)" d="m0 0h16l10 2v2l4 1-26-1-10 1-1 1-12 2-5 1-2-2 15-5z" fill="#E6BB77"/>
<path transform="translate(904,571)" d="m0 0h4l1 5-5-1-2 2v18h5l1-4h-4l1-4 5-1 1 9-5 5-5-1-4-6v-12l3-7z" fill="#F2E9E1"/>
<path transform="translate(397,458)" d="m0 0 7 1 1 6-4 3-15 4-3-1-1-2 19-5 1-3-26 6h-3l-1-3 13-3 5-2z" fill="#4D220E"/>
<path transform="translate(572,902)" d="m0 0h1v44l-2 2-1 34h-1v-36l1-37z" fill="#DCAD6E"/>
<path transform="translate(467,480)" d="m0 0h2l3 9 4 6 7 8 8 5 5 2 13 1v2l-2 1h-9l-8-2-9-6-9-10-5-10z" fill="#E3B570"/>
<path transform="translate(385,429)" d="m0 0 4 1v28l-5 1-1-2v-26z" fill="#F7C65D"/>
<path transform="translate(639,551)" d="m0 0 7 6 6 5-2-8h3l4 5-3 1-1 7-1-2-3 3-6 1-15-3-6-2v-2l10 1 16 3-6-8-3-5z" fill="#230D05"/>
<path transform="translate(800,475)" d="m0 0h10v2h-8v11h5v2h-5v9h6l1 4h-10l-1-2-1-11 1-11z" fill="#E4D1BF"/>
<path transform="translate(561,406)" d="m0 0 8 1 8 2 4-1 4 5 10 5 14 2-2 3-4 1 5 1-1 4-4-1-14-10-8-4-13-4-9-2z" fill="#B77C47"/>
<path transform="translate(521,409)" d="m0 0 4 1-1 2-16 8-8 6-2-1h-3l-13 1-3-2 17-3 8-5 3-1 2-4 2-1 2 2h4z" fill="#B77A43"/>
<path transform="translate(753,337)" d="m0 0h2l1 2 1 20 4 1 1-1 1-20 2-1v20l-3 5-5 2-3-2-2-6v-18z" fill="#F0E7DE"/>
<path transform="translate(754,572)" d="m0 0h5l4 6v16l-5 6-5-1-3-5-1-4v-8l3-9zm1 1-2 3v15l3 5 4-1 1-1v-17l-3-4z" fill="#F2EAE2"/>
<path transform="translate(578,444)" d="m0 0h43l26 1v1l-6 1h-45l-17-1z" fill="#361508"/>
<path transform="translate(802,605)" d="m0 0h10v3h-8v10h5l-1 3h-4v9h7v3h-10l-1-2v-14l1-10z" fill="#EEE2D7"/>
<path transform="translate(576,547)" d="m0 0 2 4v2l24 4 15 3 2 1v2l-14-1-28-6-9-2 1-2 6-1z" fill="#3E1D0E"/>
<path transform="translate(846,477)" d="m0 0 4 1 2 5v13l-4 4-4-5v-16z" fill="#0F0805"/>
<path transform="translate(428,624)" d="m0 0 13 2 1 2h-9l-8-1-3 9-5 13-5 19-2 1 1-5v-10l4-14 3-1 2-8h2l1-4 5-1z" fill="#1E0D06"/>
<path transform="translate(284,599)" d="m0 0h7l1 3-6-1-2 3v19h6v-6l-4 1 1-4 5-1 1 10h-2v3h-7l-4-5-1-2v-9l3-9z" fill="#F4EEE9"/>
<path transform="translate(515,303)" d="m0 0 2 1-6 7-4 8-1 4 8-6-2 5-1 13 3-3 5-10 1 3-2 9v10h2l2-4-1 6h-4l-1-2v-8l-5 1-2-4v-9l-5 1 1-9 8-11z" fill="#370E02"/>
<path transform="translate(268,771)" d="m0 0 5 1 2 2 1 10-2 1-2-10-5-2 1 18 1 4 4-2 1-6 2 4-3 6-2 2-5-1-3-5v-13l3-8z" fill="#EFE5DC"/>
<path transform="translate(841,337)" d="m0 0h8v2h-7v11h4v3h-4v8h6l1 4h-10l-1-2v-20z" fill="#EADBCE"/>
<path transform="translate(774,474)" d="m0 0h7v3h-7v11h5l-1 2h-4v9h6l2 4h-11l-1-1 1-25z" fill="#E8D9CC"/>
<path transform="translate(759,475)" d="m0 0 4 2 2 3v15l-3 4-4-1-1-21z" fill="#140C07"/>
<path transform="translate(360,840)" d="m0 0h2l2 20 6 25 4 12-1 2-5-8-3-9-1-10-3-8-1-10-1-6z" fill="#F7C65D"/>
<path transform="translate(241,461)" d="m0 0h5l1 3h-8v11h5l-1 3h-4l1 7 6 2-1 3h-9l-1-1 1-24 2-3z" fill="#EEE2D7"/>
<path transform="translate(300,601)" d="m0 0 5 1 1 2v18l-1 2-4-1-2-3v-18z" fill="#120B06"/>
<path transform="translate(317,429)" d="m0 0h9v2h-7v11h4v2h-4v9l7 1-1 3h-9l-1-1v-23z" fill="#EADBCE"/>
<path transform="translate(870,337)" d="m0 0h9v2h-7v11h4v3h-4l1 8 6 1-1 3h-9l-1-1v-17l1-9z" fill="#E9DACC"/>
<path transform="translate(371,336)" d="m0 0 4 1 3 5v14l-3 4h-3l-1-2z" fill="#110A06"/>
<path transform="translate(529,307)" d="m0 0h3l-2 4-3 5-3 7-4 8v5l3-1-3 9h-2l-1-2v-8l2-11v-3l4-8h2l2-4z" fill="#B5712F"/>
<path transform="translate(409,669)" d="m0 0h1l-1 14v27l1 14h-2l-3-9v-6l-1-1v-5h1l1-8v-12l-1-6 2-6h2z" fill="#230D05"/>
<path transform="translate(788,606)" d="m0 0 5 1 2 6v13l-3 4-4-1z" fill="#160D08"/>
<path transform="translate(572,563)" d="m0 0 12 1 10 2-3 2-12 4h-13z" fill="#B77136"/>
<path transform="translate(203,902)" d="m0 0h9v3h-7v9h5l-1 3h-4l1 3v7l-2 4-3-1v-26z" fill="#E9D9CB"/>
<path transform="translate(233,497)" d="m0 0 5 1 2 4v14l-3 4-4-1z" fill="#130B06"/>
<path transform="translate(727,336)" d="m0 0h5l1 4-4-1v6l5 6v12l-3 2h-5l-3-4v-6l3 1v6h4l-1-12-4-5v-7z" fill="#E4D2C2"/>
<path transform="translate(219,905)" d="m0 0h5l2 3v16l-2 3-4-1-2-8z" fill="#0E0805"/>
<path transform="translate(415,744)" d="m0 0h4l1 10 8 27v7l-3-2-10-35z" fill="#E8BB72"/>
<path transform="translate(473,634)" d="m0 0 13 1-2 1v11l-3 1 2 5h-2l-1 4h-2l2-9-6 2 1-5-1-3 2-7z" fill="#B77338"/>
<path transform="translate(664,607)" d="m0 0 3 1 10 19 6 16 4 17v11l-2-3-4-20-5-16-8-16-4-7z" fill="#DBAB67"/>
<path transform="translate(328,600)" d="m0 0 4 1 3 5v14l-3 4h-3l-1-6z" fill="#120A06"/>
<path transform="translate(568,982)" d="m0 0h2l3 9 4 5-7-2-3-6-5 2h-6v-1h-27l-2-1v-2l-4 1v-2l12 1h21l10-1v-2z" fill="#1F0E06"/>
<path transform="translate(862,768)" d="m0 0h7v2h-7v11h4v2l-5 1v8l7 1 1 3h-11v-22l2-5z" fill="#EFE5DB"/>
<path transform="translate(708,658)" d="m0 0h12l-6 3 9 9 7 14 3 7 8 1v1h-13l-6-18-6-8-5-4-4-2z" fill="#DEAD72"/>
<path transform="translate(259,495)" d="m0 0h3l2 18 3-9 2-8 3-1-1 7h-2l-2 13-2 6h-4l-2-10z" fill="#EEE3D9"/>
<path transform="translate(285,335)" d="m0 0h9v2h-8v11h5v2l-4 1-1 9h7l1 3h-11l-1-1v-13l1-12z" fill="#ECDFD4"/>
<path transform="translate(402,977)" d="m0 0 1 3v13l2 5-2 1h-7l-4-2 2-1-1-4 5-10 3-1z" fill="#B77337"/>
<path transform="translate(252,773)" d="m0 0 5 1 1 2v18l-5 1-2-3v-17z" fill="#0B0604"/>
<path transform="translate(343,599)" d="m0 0h8l1 3-7 1-1 3v7h5l-2 2h-3v9h7l1 3h-12l1-26z" fill="#F9F7F5"/>
<path transform="translate(278,428)" d="m0 0h12l1 3h-4v24l-4 2v-26h-6z" fill="#E6D3C2"/>
<path transform="translate(268,335)" d="m0 0 3 1 2 15 4-9 2-5 2 1-4 12-2 8-2 4-3-1-2-9z" fill="#FCFCFC"/>
<path transform="translate(235,738)" d="m0 0h12v3h-4v25h-4v-25h-5z" fill="#E6D3C2"/>
<path transform="translate(258,335)" d="m0 0h7l-1 2h-6v11h4v2h-4v9h6v4h-9l-1-3v-17l2-7z" fill="#E2CBB7"/>
<path transform="translate(656,366)" d="m0 0 3 3 1 4v10h-1l-1-12h-2v19l-3 18h-1l-1-7v-13l2-14 1-4z" fill="#B77135"/>
<path transform="translate(388,970)" d="m0 0h2l-1 5v11l3 7 3 4-7-1-5-7-1-8 2-7z" fill="#E6BA79"/>
<path transform="translate(302,632)" d="m0 0h5l1 3-8-1v11h5l-1 3h-4v9h7v3h-10l-1-1v-12l1-11 1-3z" fill="#F7F2EF"/>
<path transform="translate(301,428)" d="m0 0h2l1 9v14h2l1-8 4-13h2l-1 6-3 9-2 9-1 2-4-1-2-12v-14z" fill="#F4EEE8"/>
<path transform="translate(740,339)" d="m0 0h5l2 5v15l-2 2h-3l-2-4z" fill="#0C0604"/>
<path transform="translate(513,964)" d="m0 0 2 1 1 3v19l-2 7-4 3-16 4-28-1v-1l27-1 16-4 3-2 1-4z" fill="#B77B46"/>
<path transform="translate(678,961)" d="m0 0 6 4 3 8v12l-4 8-5 3-5-1 4-2 4-4 1-2v-13l-4-11z" fill="#E7B86B"/>
<path transform="translate(316,738)" d="m0 0h9v2h-8v11h5v2h-5l1 9 7 2v2h-11l-1-1 1-24z" fill="#EDE2D9"/>
<path transform="translate(864,571)" d="m0 0 4 1 1 3-5-1 2 7 4 5 1 2v8l-3 4h-6l-3-4v-5l3-1v7l4-1v-7l-3-7-2-3v-5z" fill="#EEE2D8"/>
<path transform="translate(662,387)" d="m0 0h1l1 11v35l-1 12-5-1 3-23z" fill="#F7C65D"/>
<path transform="translate(640,971)" d="m0 0h2l6 17v10l-1 3h3v2l-3 1-3-1-10 2h-6l-1-4 12-1 5-3 1-8-3-12z" fill="#220D05"/>
<path transform="translate(471,967)" d="m0 0 3 1-4 9-4 11v10h19v1h-21l-3-4v-7l4-11z" fill="#E8BC75"/>
<path transform="translate(897,904)" d="m0 0h4v19l-1 5h8v4h-10l-1-1z" fill="#E7D5C4"/>
<path transform="translate(730,704)" d="m0 0 3 1-1 1v21l-2 5-2 13h-2l-1 3-4 2 3-10 4-17z" fill="#E1B174"/>
<path transform="translate(844,605)" d="m0 0 4 1v4l-6-1-1 16 2 5 5-1v3l-7 1-5-5v-15l4-6z" fill="#EEE2D8"/>
<path transform="translate(454,508)" d="m0 0h2l1 3-1 19-6 5-2 6-3 1v-2l-4-3 4-1 2-7 4 2 2-19z" fill="#B77E49"/>
<path transform="translate(599,359)" d="m0 0h10l5 3-1 4-5-1h-11l-6 3v3l-4 2-1-3 1-2h2l-1-3 4-4z" fill="#9A5C2B"/>
<path transform="translate(637,971)" d="m0 0h2v2h2l4 10 1 11-3 5-4 2h-13l-1-3 1-7 2 4v3h10l3-5v-13l-4-8z" fill="#E2B56E"/>
<path transform="translate(897,735)" d="m0 0 6 1v3h-6l-1 2v18h8l-2 4h-7l-4-6v-14l3-6z" fill="#EFE5DB"/>
<path transform="translate(887,336)" d="m0 0 5 2-1 3-2-1v-2l-2 1v5l5 6 1 9-3 5-5 1-4-4v-5l4-1v6l4 1-1-11-5-7v-5z" fill="#F1E9E1"/>
<path transform="translate(618,973)" d="m0 0 3 3 3 12v7l-2 5-4 2h-12v-1l7-1 3-2 2-4z" fill="#DEB06F"/>
<path transform="translate(824,734)" d="m0 0 4 1 1 4h-2v-2h-3l2 7 3 4 1 10-3 5h-6l-2-4v-6h3v6h4v-8l-2-6h-2l-2-3 1-6z" fill="#F3ECE6"/>
<path transform="translate(226,429)" d="m0 0h9l-1 2h-7v11h5v2l-4 1-1 8h7v4h-10v-24z" fill="#F3EBE4"/>
<path transform="translate(829,904)" d="m0 0 4 2 3 6v2l2-1 4-8 3-1-2 6-4 7v14h-4l-2-17-4-7z" fill="#E8D9CA"/>
<path transform="translate(890,768)" d="m0 0h7v2h-8v11l5 1-2 2h-3l1 8 6 2v2h-10l-1-5v-9l2-13z" fill="#F8F6F4"/>
<path transform="translate(340,738)" d="m0 0h13v2h-4v25l-4 2v-27h-6z" fill="#ECDED2"/>
<path transform="translate(465,556)" d="m0 0 1 3-8 15-4 8-4 4h-2v-9l10-11z" fill="#ECC586"/>
<path transform="translate(298,495)" d="m0 0h8l1 2h-8v11l5 1-1 2h-4v9h6l1 3h-10l-1-6 1-18z" fill="#FBFBFA"/>
<path transform="translate(224,771)" d="m0 0 8 1v2h-8v9h5v3h-4v12l-1 2h-3l-1-16 1-12z" fill="#F2EAE3"/>
<path transform="translate(225,738)" d="m0 0h5l1 4-5-2 2 7 5 7v9l-3 3-7-1v-2h-2l1-6h2v6h5l-2-12-4-6v-5z" fill="#ECDFD3"/>
<path transform="translate(528,788)" d="m0 0h1v8l-6 39-2 16h-2v-9l2-16 2-11 3-20z" fill="#B77B45"/>
<path transform="translate(852,605)" d="m0 0h9l1 2h-8v11l5 1v2h-5v9h7v3h-10l-1-13z" fill="#F7F3EF"/>
<path transform="translate(425,627)" d="m0 0h8v2h7v1l-12 1-1 5-5 12-3 1-3 3 2-9z" fill="#E7BE7E"/>
<path transform="translate(254,428)" d="m0 0h7v3h-7v11h4v2h-4v9h5l1 3h-9l-1-4 1-22z" fill="#F2E9E2"/>
<path transform="translate(211,738)" d="m0 0h8l1 2h-8v12h5l-1 2h-4v9h6l1 3h-10l-1-5 1-19z" fill="#FAFAF9"/>
<path transform="translate(794,572)" d="m0 0 4 2 3 9h2l3-9 1-2h2l-1 6-4 7v14h-4l-1-13-5-10z" fill="#F0E6DD"/>
<path transform="translate(248,495)" d="m0 0h8v2h-7v11h4l-1 3h-3v9h6v3h-9l-1-4 1-22z" fill="#F7F3F0"/>
<path transform="translate(710,480)" d="m0 0 1 3-2 7h-2l-2 4-6 7h-2l-2 4-6 5-5 1h-3l10-8 10-10 7-10z" fill="#2E0E03"/>
<path transform="translate(647,917)" d="m0 0h3l1 5 1 4h-2v2h2l-1 5-2 1h-3l-3 1-1-3v-9z" fill="#B77D48"/>
<path transform="translate(860,904)" d="m0 0h12v2h-4v24l-4 2v-26h-5z" fill="#E9D9CB"/>
<path transform="translate(837,735)" d="m0 0h5l1 4h-2v-2l-4 1v21l4 1 3-1-2 4h-6l-3-3-1-3v-15l3-5z" fill="#F0E7DE"/>
<path transform="translate(413,374)" d="m0 0 1 2 4 1-8 6h-2v2l4-1-5 5-8 10-8 11-1-3 2-4h2l2-6 7-11h2l2-4 2-1z" fill="#250D05"/>
<path transform="translate(779,704)" d="m0 0 3 1-1 1h1l1 10h1l-1 14-4 5 1-20-6 12-1-3 5-18z" fill="#200E06"/>
<path transform="translate(312,599)" d="m0 0h3v17l-1 8h9v3h-11l-1-2v-25z" fill="#ECDFD3"/>
<path transform="translate(668,520)" d="m0 0 2 2-4 11-1 4v18h-2l-4-5-1-4-1-2h4l1-13 1-2h2l-4-6z" fill="#B77C46"/>
<path transform="translate(216,428)" d="m0 0 5 1v4h-2v-2l-3 1 2 7 3 3 1 3v8l-2 3-6 1-2-1-1-9h3v7l4-1v-8l-4-7-1-1v-6z" fill="#F3EBE5"/>
<path transform="translate(236,771)" d="m0 0 2 1v20l-1 4h8v3h-10l-1-1v-25z" fill="#EFE4DB"/>
<path transform="translate(331,738)" d="m0 0h5l1 3-5-1 2 7 4 6v9l-4 4-6-1-1-9h3l1 7 3-1v-8l-4-7-1-1v-6z" fill="#F5F0EC"/>
<path transform="translate(827,442)" d="m0 0h5l1 3h-5l-2 7v11l1 3 7-1-1 4-6 1-4-4-2-4v-9l2-7z" fill="#EEE3D9"/>
<path transform="translate(769,336)" d="m0 0 3 1v16l-1 8h8l-1 4-9-1-1-3v-24z" fill="#ECDFD4"/>
<path transform="translate(717,957)" d="m0 0 3 1 5 7 2 9v11h-2l-1 4-5 5h-3l-1 2v-2h-2v-2l5-3 4-5 1-2v-13l-4-8z" fill="#260E05"/>
<path transform="translate(519,953)" d="m0 0 18 4h24l-1 2-9 2-16 1-13-5-3-2z" fill="#ECBF81"/>
<path transform="translate(409,745)" d="m0 0h2l9 29 3 8v10l-2 2-2-13-5-16-4-9-2 2z" fill="#DEAE69"/>
<path transform="translate(435,608)" d="m0 0 1 2-2 3-1 5 14 1 20 3 3 1v2l-14-1-26-4v-7z" fill="#351A0D"/>
<path transform="translate(233,335)" d="m0 0 5 1v3h-5l-2 5v14l1 3 7-2-2 4h-7l-3-5-1-4v-8l3-8z" fill="#F7F4F0"/>
<path transform="translate(683,869)" d="m0 0 3 1-4 8-5 12-2 9-4 4-4 6-2 1-1-4 8-13 8-17z" fill="#B87F4A"/>
<path transform="translate(877,735)" d="m0 0h12l1 2h-5l1 7v10l-1 9h-4v-25l-4-1z" fill="#F1E7DF"/>
<path transform="translate(707,661)" d="m0 0 6 2 7 7 5 10 3 9-1 4-2 2-1-9v-2l-3-1v-2l-2-2v-5l-2 1-3-6-2-1v-2l-6-2z" fill="#230E05"/>
<path transform="translate(624,573)" d="m0 0h5l1 5 3 2 1 3 5 5 6 7 5 8-1 2-5-4-9-11-6-8z" fill="#F5C45F"/>
<path transform="translate(729,571)" d="m0 0 4 1 1 3-5-1 2 7 4 6v8l-2 4-5 1-3-1-1-9h3v6h4v-8l-4-7-1-1v-7z" fill="#F3EBE5"/>
<path transform="translate(452,543)" d="m0 0 1 3-2 9 3 5h-2l1 6-2 1v8l-2 2-1 6h-1v-23l2-13z" fill="#B77E4A"/>
<path transform="translate(865,337)" d="m0 0h2l-1 6-4 6-1 15h-3l-2-16-5-8v-2l4 1 2 2 1 6h3l1-5z" fill="#F4EEE9"/>
<path transform="translate(783,337)" d="m0 0h11v2h-9l1 10h5v2h-5v14l-4-1v-26z" fill="#F4EEE9"/>
<path transform="translate(436,879)" d="m0 0h2l3 13 1 14-1 1h-15v-4l9-1 3-8z" fill="#BD854E"/>
<path transform="translate(528,683)" d="m0 0h2l4 8v16l-2 3-4-9z" fill="#B77135"/>
<path transform="translate(850,572)" d="m0 0h5l2 3h-3v-2l-2 1 1 7 4 5v11l-3 3-6-1-2-4 1-5h2v7l4-1v-9l-5-8v-5z" fill="#F6F2EF"/>
<path transform="translate(817,475)" d="m0 0 5 1v3l-4-1-2 5v17l8-1-1 3-7 1-4-4-1-5v-7l2-9z" fill="#F4EDE7"/>
<path transform="translate(262,738)" d="m0 0 4 1-1 2-4 1v21l7-1-1 3-7 1-3-3-1-3v-13l2-6z" fill="#ECE0D4"/>
<path transform="translate(779,441)" d="m0 0 5 1 1 3-5-1 1 6 4 5 1 10-4 5-5-1-2-3v-6h3v6l4 1v-8l-3-7-3-4 1-5z" fill="#F8F4F1"/>
<path transform="translate(471,631)" d="m0 0 16 1 23 4 3 2-1 1-12-1-27-4-3-2z" fill="#411C0C"/>
<path transform="translate(778,771)" d="m0 0 1 3-3 6h-3v9l-2 1-2 9-4 5-3 1 2-6 5-10-3 2-4 3-2-1 9-10 4-6h2l2-5z" fill="#260D05"/>
<path transform="translate(647,575)" d="m0 0h8l-3 1 3 5 2 6 5 8 3 4-1 3v-2l-4-1-5-6-4-7-5-6 4 1-3-4z" fill="#2B0E04"/>
<path transform="translate(562,550)" d="m0 0 10 1-4 3h-5v3l25 5v1h-12l-6 1v-2l-9-1-3-4 2-6z" fill="#53331B"/>
<path transform="translate(287,495)" d="m0 0 5 1 1 3h-3v-2l-4 3-1 6v13h2v2l4-2h3l-2 4-8-1-3-6v-13l2-5z" fill="#F5EFEA"/>
<path transform="translate(511,300)" d="m0 0 6 1v2l-5 4-5 8h-3l-2 1v-7l2-5-3-1z" fill="#BB7637"/>
<path transform="translate(521,306)" d="m0 0v3l-5 13v7l-3 6h-2v-13l1-3-3 2 2-4 6-8z" fill="#BA7637"/>
<path transform="translate(721,966)" d="m0 0 3 3v13l-4 6-4 4-5 1 3-6 2-14 2 3 2 5h2z" fill="#C78D57"/>
<path transform="translate(288,738)" d="m0 0h5l1 3h-5l-1 2v19h7l-3 4-6-1-3-6v-12l3-7z" fill="#F0E7DF"/>
<path transform="translate(351,335)" d="m0 0 3 1 3 8-3 1v18h-4v-26z" fill="#E8D8C9"/>
<path transform="translate(384,972)" d="m0 0 1 2-2 7 1 8 4 6 2 2h-2l-1 3-4 2-3 1v-2l-5-1-2-5 3-1 3 3 6 1-4-6-1-3v-9l3-7z" fill="#380F03"/>
<path transform="translate(629,356)" d="m0 0 1 3-10 13h-4l-10-5h-9l-5 3h-2l2-4 5-2h11l7 2 3 3 7-8z" fill="#DEAE6B"/>
<path transform="translate(813,336)" d="m0 0h2v25h8v4h-10l-1-1v-27z" fill="#F3ECE6"/>
<path transform="translate(518,852)" d="m0 0h1v20l-3 33-2 2v-17l3-34z" fill="#B77B44"/>
<path transform="translate(532,791)" d="m0 0 2 2-1 12-5 35-2 1v-9l5-39z" fill="#B77C46"/>
<path transform="translate(541,432)" d="m0 0h14l12 3-3 2-7-1-3-1h-14l-4 1-11 4-4-1 10-5z" fill="#360E02"/>
<path transform="translate(241,335)" d="m0 0h3v24h7v4h-9l-1-1z" fill="#F2EAE2"/>
<path transform="translate(506,756)" d="m0 0 4 1 8 6 3 2v2l4 2 4 6 8 1v1h-14l-1-3 3-1-5-1-3-2-2-5-6-5v-2l-3-1z" fill="#F4C463"/>
<path transform="translate(195,738)" d="m0 0h10v3h-2l1 5v16l-4 4-5-1-1-4 3-1v3l3-1v-21l-6-1z" fill="#F5EFEA"/>
<path transform="translate(342,632)" d="m0 0h9l1 3h-5v25l-3 1v-26h-5v-2z" fill="#FAF8F7"/>
<path transform="translate(281,771)" d="m0 0h9l1 2h-9l1 9 5 1-1 2h-4v13l-2 1-2-1v-15l1-11z" fill="#F4EDE7"/>
<path transform="translate(718,752)" d="m0 0h2v2h-2l-2 5-7 10-6 6-9 2-2-5 2 1v2l7-4 7-8 1-3 3-1 2-3h2z" fill="#250F06"/>
<path transform="translate(523,514)" d="m0 0h6v1l-5 1 2 2-4 1 1 5-5 3-7 2-1-4 3-5z" fill="#BC8350"/>
<path transform="translate(625,643)" d="m0 0 3 3v2l4 2v2l-7-1 1 8-2 2-3 9-8 11-2 1 2-5 5-10 1-6 1 3h2l1-11-1-6 5 2-2-3z" fill="#370E02"/>
<path transform="translate(643,462)" d="m0 0h1l-1 16-1 6-1 28-2-3-1-7v-15l3-14z" fill="#B77135"/>
<path transform="translate(517,432)" d="m0 0 1 4-2 2h-3v2l5 1h3l-2 3h2l4 4v3h-5l4 12h-2l-3-8-2-5-3-8-4-2 1-3z" fill="#320E02"/>
<path transform="translate(377,975)" d="m0 0 1 2h-2v10l3 3 1-4 4 10 2 3-7-1-3-2v-2h-2l-2-7 1-8z" fill="#EBCA96"/>
<path transform="translate(776,707)" d="m0 0h1l-1 9-2 8h-2l-1 4-4 8-3 1 1 4-6 9-1-4 7-13 6-13 4-12z" fill="#F6C662"/>
<path transform="translate(238,428)" d="m0 0h2v25h8v3h-11v-27z" fill="#F8F6F3"/>
<path transform="translate(479,317)" d="m0 0 9 1 3 3-12-1-8 5-1 2h-3l-2 4-13 13-1-3 5-6h2l1-3 8-7 9-7z" fill="#DDAD6D"/>
<path transform="translate(388,935)" d="m0 0 4 5 10 13 4 6v3h-6l1-3-2-3-7-8-3-6v-2h-2l-1-3z" fill="#210D06"/>
<path transform="translate(727,884)" d="m0 0 2 3-1 5-6 13h-2l-1 4 2 1-2 3-2-1-2 8-4 4-1-2 13-27z" fill="#200D05"/>
<path transform="translate(359,873)" d="m0 0 2 3 7 20 5 11-1 2-7-7-1-8-1-5h-2v-4h-2l-1-7-1-4z" fill="#200D06"/>
<path transform="translate(712,764)" d="m0 0 1 2-2 4-9 10 3 3v2l-10 2-1-6 4-4 8-6z" fill="#BD854F"/>
<path transform="translate(267,430)" d="m0 0 2 1-1 2-1 20 9-1-1 3-6 1-5-4-1-2v-13l2-5z" fill="#E2CDBA"/>
<path transform="translate(650,885)" d="m0 0 1 4h-2l1 6-3 13v7l-2 6-2 1v-9l4-25z" fill="#B77A44"/>
<path transform="translate(874,572)" d="m0 0h2v28h-2l-2-5v-22z" fill="#E5D2C1"/>
<path transform="translate(784,475)" d="m0 0h13v2h-5v25l-3 1v-26h-5z" fill="#FCFCFC"/>
<path transform="translate(669,457)" d="m0 0h50l-1 4h-2v-2h-46z" fill="#E5B977"/>
<path transform="translate(475,435)" d="m0 0 6 2 2 3v6l-4 1-4-1-4-5v-5z" fill="#B06C32"/>
<path transform="translate(309,901)" d="m0 0h4l1 4-5-2 1 7 5 7v9l-2 3h-6l-3-5 1-4h2v6l5 1-1-11-5-7 1-6z" fill="#F8F5F2"/>
<path transform="translate(388,409)" d="m0 0 2 1-2 5-4 7-5 13-4 14-2 15-2-2 1-6v-9h2l1-11h2l-1-3 1-2h2l1-10h2l2-6z" fill="#1F0E06"/>
<path transform="translate(738,572)" d="m0 0h2v24h6l2 1v2l-3 1-7-1-1-2v-24z" fill="#F7F3EF"/>
<path transform="translate(826,475)" d="m0 0h12v2h-4v25l-3 1v-26h-5z" fill="#FCFCFC"/>
<path transform="translate(830,605)" d="m0 0h2l1 5v23h-3l-1-5v-21z" fill="#ECDFD3"/>
<path transform="translate(567,514)" d="m0 0 5 1 7 4 2 3v7l-4-4-7-3-5-2-1-4z" fill="#C68C5D"/>
<path transform="translate(488,515)" d="m0 0 5 1 5 3 5 6 6 3 1 10h-1l-1-8-6-1-8-6-5-4z" fill="#B77339"/>
<path transform="translate(526,845)" d="m0 0h1l-1 23-2 12-1 10h-1v-21l2-19z" fill="#B77D49"/>
<path transform="translate(564,959)" d="m0 0h2l1 3-2 16h-2v-15l-14 3h-11l3-2 20-4z" fill="#C38A57"/>
<path transform="translate(665,433)" d="m0 0h2v11h26l25 1v1h-43l-11-1z" fill="#F2CA7D"/>
<path transform="translate(619,317)" d="m0 0 7 2 5 3v2l4 1 5 3 2 3 6 3v2h2l3 3-1 3-14-11-16-10-3-3z" fill="#280E04"/>
<path transform="translate(711,962)" d="m0 0 2 1 3 9v11l-3 8-2 4-4 1v-3l2-4 3-5 1-9z" fill="#381205"/>
<path transform="translate(275,903)" d="m0 0h2l1 4 1 16 1 3 3 2-5 1-3-4-1-3v-14z" fill="#FCFCFC"/>
<path transform="translate(736,819)" d="m0 0h2v23l-5 25-2-1 2-10 2-15z" fill="#D7A768"/>
<path transform="translate(173,738)" d="m0 0 2 1 1 7v17l-1 4h-2l-1-5v-18l1-3-2-1z" fill="#E3CFBC"/>
<path transform="translate(584,380)" d="m0 0h1l-1 9h-2l1 8-1 6 2 6 2 1 1 4-4-2-5-7 1-11 4-13z" fill="#250E05"/>
<path transform="translate(639,347)" d="m0 0 2 2-8 10-13 18-2-4 8-10 8-11z" fill="#4F2510"/>
<path transform="translate(416,755)" d="m0 0 2 3 8 28-1 5-2-1-2-11-7-20v-3z" fill="#370E02"/>
<path transform="translate(789,442)" d="m0 0h2l3 6-1 4-2-4v21h-3l-1-10v-12z" fill="#F9F8F6"/>
<path transform="translate(293,429)" d="m0 0h3l1 15v12l-3 1-1-2z" fill="#F2EAE2"/>
<path transform="translate(507,393)" d="m0 0h2l2 7v10l-4 5-7 5h-5v-2l5-2 5-6 2-1z" fill="#260D05"/>
<path transform="translate(420,967)" d="m0 0 3 1-7 14-1 9 1 6-2 2-2-5v-12l7-14z" fill="#370E02"/>
<path transform="translate(691,797)" d="m0 0h1v27l-2 13-3-2 2-19 1-18z" fill="#E5B770"/>
<path transform="translate(499,542)" d="m0 0h3l7 8 8 7 6 9 4 5-4-1-5-5-2 1v-2h-2v-2h2l-4-6-3-2v-2h-2v-2h-2v-2l-4-2z" fill="#B77C46"/>
<path transform="translate(577,996)" d="m0 0 15 3 14 2 2 2-4 2-5-1-14-2-4-1 1-2-5-1z" fill="#220D06"/>
<path transform="translate(815,605)" d="m0 0 2 2 1 10v11l3-1-1 5h-4l-2-10v-16z" fill="#FCFCFC"/>
<path transform="translate(300,461)" d="m0 0h2l-1 28-3-1-6-14v-2h2l4 10 1-20z" fill="#F9F6F3"/>
<path transform="translate(560,428)" d="m0 0h8v2h4v2l5 1-2 3-6 1-8-3-6-1v-1h8l-3-2z" fill="#B87A46"/>
<path transform="translate(431,917)" d="m0 0h12l1 13-3-1-2-4h-4l-2-5-2 2-1-4z" fill="#B77B45"/>
<path transform="translate(660,900)" d="m0 0 2 1-1 5-7 10h-2v3l3 1-5 3v-6h-2l2-4 8-10z" fill="#E9BF7E"/>
<path transform="translate(250,738)" d="m0 0 2 1 1 10v16l-3 1-1-7v-20z" fill="#F3EBE4"/>
<path transform="translate(645,688)" d="m0 0 1 3-5 16-2 5-4-1 1-7z" fill="#B77135"/>
<path transform="translate(596,369)" d="m0 0h12v2l4 1 7 3-1 4-4 2v-3l-5-2v-2l-9-2-4-2z" fill="#0D0704"/>
<path transform="translate(344,335)" d="m0 0h2l1 26-1 3h-2l-1-5v-23z" fill="#E7D7C8"/>
<path transform="translate(336,335)" d="m0 0h3l1 3v25h-3v-25h-2v2l-2-1z" fill="#F8F5F2"/>
<path transform="translate(497,534)" d="m0 0 3 1 6 8 5 5v2l5-1 3 6-2 4-5-6-8-7-7-10z" fill="#370E02"/>
<path transform="translate(687,694)" d="m0 0h1v19l-5 22-1 2-3-1 4-14 3-19z" fill="#DDAD6B"/>
<path transform="translate(592,455)" d="m0 0h53v6h-3v-3l-50-2z" fill="#E5B86C"/>
<path transform="translate(634,369)" d="m0 0h2l-2 5-5 6 1 9 4 20h-2l-3-13-4-11 1-5z" fill="#E0B270"/>
<path transform="translate(484,371)" d="m0 0 11 1v3l-10 2-8 5-4 1-1-2h3l1-4 4-3h2v-2z" fill="#0A0503"/>
<path transform="translate(422,900)" d="m0 0 3 3 1 4h14l-1 3h-23l-2-2 1-1h9z" fill="#451D0B"/>
<path transform="translate(493,710)" d="m0 0 5 2 1 5-2 3-10 2 3-4 6-1-1-3-10 2-4-1 5-3z" fill="#461C0A"/>
<path transform="translate(618,569)" d="m0 0 11 1 21 4-3 1-1 2-26-5v-2z" fill="#4E2510"/>
<path transform="translate(561,862)" d="m0 0h1l2 21v15l-2 3-1-5-1-31z" fill="#B77E4A"/>
<path transform="translate(355,830)" d="m0 0h1l1 34h-2l-3-6 2-10-1-1v-10h1z" fill="#220E06"/>
<path transform="translate(657,842)" d="m0 0 2 1-1 4-1 13-2 6h-3-1l1-12 3-5v-5z" fill="#B77E4A"/>
<path transform="translate(493,310)" d="m0 0 5 2v6l-3 2-7-1-9-1h-2l2-5 16 4v-4h-2z" fill="#491D0A"/>
<path transform="translate(693,696)" d="m0 0 2 1-2 4 16 1v1h-16l-2 14-2 11-2 2 1-14 2-9v-9z" fill="#1E0E07"/>
<path transform="translate(613,452)" d="m0 0h32l-3 3h-22l-8-1z" fill="#411F0E"/>
<path transform="translate(465,906)" d="m0 0h5l2 3-1 5-3 2h-5v-1l-15-1v-1l20-1 1-3h-23v-1h19z" fill="#7E4924"/>
<path transform="translate(358,811)" d="m0 0h2l-2 6-2 4h2l1-3 1 2v7l3-3-2 6-7-1v-13h2l1-4z" fill="#260F06"/>
<path transform="translate(752,821)" d="m0 0 2 1-4 6-2 4h-2v2h-3l-1 3h-2l-1 4-1-4 2-6h3l2-4z" fill="#210E06"/>
<path transform="translate(686,509)" d="m0 0 2 2-5 4-8 4h-3l-2 10-2 4-1-3 3-12 5-4 9-4z" fill="#230E05"/>
<path transform="translate(559,469)" d="m0 0h5l-3 2-4 2-5 5-4 1 2 13 2 3-5-1-1-3v-14l7-3 3-4z" fill="#DFAC71"/>
<path transform="translate(612,330)" d="m0 0h6l2 5 4 4v3l-4-1-8-4-1-3z" fill="#1C0D06"/>
<path transform="translate(565,854)" d="m0 0 2 4 3 29v4h-2l-1-2-2-20z" fill="#B77C47"/>
<path transform="translate(770,573)" d="m0 0 5 1 1 2v7l-3 3-4-1v-11z" fill="#1D120A"/>
<path transform="translate(641,895)" d="m0 0h2v8l-3 27h-1l-1-9v-9z" fill="#DAA967"/>
<path transform="translate(784,573)" d="m0 0 4 1 2 2v6l-2 4-5-1v-11z" fill="#1C110A"/>
<path transform="translate(546,414)" d="m0 0h9l10 1v1l-23 1-16 3-10 3 2-3 8-3 9-1 3-1z" fill="#F7C65D"/>
<path transform="translate(391,918)" d="m0 0h37l-1 5-18-3-18-1z" fill="#B9814D"/>
<path transform="translate(406,743)" d="m0 0h7l3 8v5l-3-1-2-10h-2l-3 17h-1l-1-9 3-8z" fill="#280C03"/>
<path transform="translate(676,620)" d="m0 0h2l3 10 2 2v6h2v7l-2 2-5-15-2-5z" fill="#220D05"/>
<path transform="translate(275,495)" d="m0 0h2v27h-2l-1-4v-22z" fill="#F1E8E0"/>
<path transform="translate(640,453)" d="m0 0h27l6 1-4 2h-24l-5-2z" fill="#241007"/>
<path transform="translate(438,966)" d="m0 0 2 1-7 11-3 10 1 7 4 4-3 1-4-4-1-9 4-11z" fill="#370E02"/>
<path transform="translate(469,968)" d="m0 0v3l-6 13-1 4v9l-2 2-2-4 1-10 4-9z" fill="#370E02"/>
<path transform="translate(890,904)" d="m0 0h2l1 8v20l-3-1z" fill="#FCFCFC"/>
<path transform="translate(410,720)" d="m0 0 3 2 2 8 10-2 4 1-10 4-7 1-2-7z" fill="#E1B577"/>
<path transform="translate(470,623)" d="m0 0 13 1 11 2v2h4v2l-28-4z" fill="#421F0D"/>
<path transform="translate(840,572)" d="m0 0h2l1 8v20l-3-1z" fill="#FCFCFC"/>
<path transform="translate(516,449)" d="m0 0 3 2 3 9v5l4 2v2l7 1v1h-7l-6-5-4-8-1-8z" fill="#320E02"/>
<path transform="translate(404,981)" d="m0 0h2l1 9 2 2 1-9h1v11h2l1 6-6-2-4-7z" fill="#DBAA6B"/>
<path transform="translate(663,979)" d="m0 0 1 3h2l1 6 1 5 7 3v1h-7l-6-2z" fill="#B77C47"/>
<path transform="translate(804,906)" d="m0 0h6l1 1v8l-2 2h-5z" fill="#110906"/>
<path transform="translate(438,547)" d="m0 0 4 3 5-2-2 10-3 1-2-3-6 5 1-5h2z" fill="#CDA079"/>
<path transform="translate(647,445)" d="m0 0h12l8 1v2l-11 1-21-1v-1z" fill="#452815"/>
<path transform="translate(518,934)" d="m0 0 2 1v20l7 4-1 2-7-1-2-7z" fill="#B7804D"/>
<path transform="translate(673,880)" d="m0 0h1v5l-10 17-2 1-1-4 8-13z" fill="#E7BB81"/>
<path transform="translate(683,964)" d="m0 0h2l4 9 1 12-3 9h-2l-1-4 2-5v-12z" fill="#3A1003"/>
<path transform="translate(710,965)" d="m0 0h2l2 13-2 8-4 5-3-1 4-2 1-5v-8l-2-8h2z" fill="#E7BA73"/>
<path transform="translate(564,900)" d="m0 0h1l1 9v23l-1 6h-1l-1-34z" fill="#B8814E"/>
<path transform="translate(818,906)" d="m0 0h6l1 2v6l-2 3h-5z" fill="#110A06"/>
<path transform="translate(779,728)" d="m0 0 1 4-5 14 5 1-6 7-7 6v-3l7-7-2-2z" fill="#370E02"/>
<path transform="translate(441,626)" d="m0 0 3 1h-3zm-8 2h9l25 4 1 2h-8l-17-2-3-1v-2h-7z" fill="#CC9A5C"/>
<path transform="translate(379,470)" d="m0 0h5l-1 3-6 1 4 10 2 6 1 4h-2l-4-7-2-4-1-12z" fill="#200D05"/>
<path transform="translate(561,406)" d="m0 0 8 1 8 2 4-1 4 5 2 2-9-2-15-4-4-2z" fill="#B77D49"/>
<path transform="translate(686,371)" d="m0 0 6 4 3 8 4 4v2h2l3 6-1 3-15-21-2-1z" fill="#2E0E03"/>
<path transform="translate(527,317)" d="m0 0h2l-3 12-4 7h-2l-1-5 5-10z" fill="#F2CC85"/>
<path transform="translate(280,461)" d="m0 0h2l1 13v15l-3-1z" fill="#FAF8F7"/>
<path transform="translate(707,928)" d="m0 0 2 1-1 5-1 2h-2l-2 5-4 4-1 3h-4l2-4 7-10z" fill="#210D06"/>
<path transform="translate(788,903)" d="m0 0h6v3l1 2v8h-6v-10l1-2z" fill="#382313"/>
<path transform="translate(441,557)" d="m0 0 1 2 3-1v10l-1 7-3-1-1-3v-10z" fill="#BF8654"/>
<path transform="translate(591,530)" d="m0 0 1 2-7 11-7 8h-1v-9l3-2v3l5-5z" fill="#411607"/>
<path transform="translate(877,903)" d="m0 0h5l1 4v9h-6v-9-3z" fill="#342113"/>
<path transform="translate(443,627)" d="m0 0 14 1 12 2v3l-23-3-4-2z" fill="#391709"/>
<path transform="translate(367,599)" d="m0 0 2 1-1 27-4-4-1-3h2l1-20z" fill="#FBFAF9"/>
<path transform="translate(384,439)" d="m0 0 2 1 1 11 1 7-4 1-1-2v-17z" fill="#E39825"/>
<path transform="translate(487,719)" d="m0 0 2 1-2 3-16 5-7-1 3-2z" fill="#562C14"/>
<path transform="translate(419,648)" d="m0 0h2l-1 7-2 5-2 6-4 1 3-14z" fill="#E8BB74"/>
<path transform="translate(622,562)" d="m0 0 10 1 14 3 1 3-16-2-9-3z" fill="#4A2310"/>
<path transform="translate(625,411)" d="m0 0 3 2-5 4-12 3h-10v-2h2l1-3 1 1h11l9-2z" fill="#562B14"/>
<path transform="translate(652,962)" d="m0 0 5 5 5 10 1 3v13h-3v-13l-5-11-3-5z" fill="#370E02"/>
<path transform="translate(482,713)" d="m0 0m-4 1 4 1v2l-21 6 1-4z" fill="#4D2612"/>
<path transform="translate(733,704)" d="m0 0 7 1v1h-5l-1 19-2 2-1-21z" fill="#F7C65D"/>
<path transform="translate(409,669)" d="m0 0h1l-2 27-2-1v-12l-1-6 2-6h2z" fill="#1F0E06"/>
<path transform="translate(483,419)" d="m0 0h2v3l13-2-2 2-11 2h-12v-2l-7-1v-1h17z" fill="#5D2D13"/>
<path transform="translate(769,787)" d="m0 0 1 2-8 16-3 1-3-10h2l2 5h2l1-4 1-6z" fill="#B7773E"/>
<path transform="translate(684,738)" d="m0 0 2 2 2 10v10l-2-4-2-9-3 5h-1l1-8z" fill="#D7A463"/>
<path transform="translate(450,692)" d="m0 0 2 4 4 10 2 1v2h-2v6l-1-2h-2l-3-11-1-7z" fill="#B87234"/>
<path transform="translate(466,572)" d="m0 0 2 1-11 11h-2l-2 4-2 1-1-4 7-7z" fill="#370E02"/>
<path transform="translate(231,494)" d="m0 0 8 1 4 8-1 4-1 7h-1l-1-12-2-4-4-1-2 7h-1v-8z" fill="#DDC4AD"/>
<path transform="translate(604,389)" d="m0 0h4l1 2v6l-2 2-5-1-1-6z" fill="#F4EEE8"/>
<path transform="translate(270,336)" d="m0 0 2 4 1 11 4-9 2-5 2 1-4 12-2 7-3 1-1-2z" fill="#B79F8B"/>
<path transform="translate(415,744)" d="m0 0h4l1 10 2 8h-2l-1 3-4-14z" fill="#E8BE7C"/>
<path transform="translate(439,690)" d="m0 0 3 4 1 4 1-6 2 3 3 10v4h-2l-3-6-3-3-2-6z" fill="#B77135"/>
<path transform="translate(880,579)" d="m0 0h2l1 7v13h-3l-1-9v-10z" fill="#FCFCFC"/>
<path transform="translate(433,617)" d="m0 0h15l24 4v1h-11l-28-4z" fill="#D5A263"/>
<path transform="translate(483,370)" d="m0 0h9l2 2-2 1-10-1v2l-6 4-1 3-4-1 3-5 6-4z" fill="#260E05"/>
<path transform="translate(644,353)" d="m0 0h25l-4 2-1 4-3-1-1-2h-15l-4 2z" fill="#300E03"/>
<path transform="translate(524,306)" d="m0 0h2l-2 6-5 9-2 6h-2l1-9 5-8z" fill="#F1C470"/>
<path transform="translate(645,874)" d="m0 0h1v9l-2 13-4-1 1-10 1-2h2v-7z" fill="#DD9E44"/>
<path transform="translate(665,355)" d="m0 0 5 1v2l7 1 7 6v3h2v3l-4-2-3-3 1-2-10-4z" fill="#280D04"/>
<path transform="translate(663,908)" d="m0 0h2l-1 5-4 6-4 2-3-1-1-4 1 2 5-4z" fill="#B77B45"/>
<path transform="translate(421,903)" d="m0 0 3 1v3l-10 1h-22v-1l16-1 1-1 10-1z" fill="#B87E48"/>
<path transform="translate(521,892)" d="m0 0h1v15l-2 19h-1v-23l1-10z" fill="#B77C47"/>
<path transform="translate(535,412)" d="m0 0 3 1-3 4-12 2-5 1-2-2 15-5z" fill="#E4B778"/>
<path transform="translate(473,316)" d="m0 0h4l-1 3-8 6-6 3-1 2-3-1 4-5 5-3 4-4z" fill="#230E05"/>
<path transform="translate(398,938)" d="m0 0 4 5 2 3 4 2 4 9-5-2-3-5-6-6z" fill="#F6C65D"/>
<path transform="translate(552,794)" d="m0 0 2 2 1 9v13h-1l-2-10-2-5v-8z" fill="#B77E4A"/>
<path transform="translate(183,739)" d="m0 0 4 1 1 2v8h-6v-9z" fill="#24160C"/>
<path transform="translate(726,732)" d="m0 0h3l-1 13h-2l-1 3-4 2 3-10z" fill="#E1B471"/>
<path transform="translate(680,643)" d="m0 0h3l4 17v11l-2-3-4-20z" fill="#DCAE6D"/>
<path transform="translate(629,574)" d="m0 0 11 1 8 2 3 4-1 2-3-3h-6l-3-2-7-1v-2z" fill="#B77C46"/>
<path transform="translate(586,521)" d="m0 0h2l-2 5-1 1-1 8h2l-1 4-3 4h-2l2-16z" fill="#DAA76A"/>
<path transform="translate(480,394)" d="m0 0h7l1 5-3 4-4-1-1-1z" fill="#F8F5F3"/>
<path transform="translate(640,971)" d="m0 0h2l6 17v10l-6 2 3-6-1-11-4-10z" fill="#3B1103"/>
<path transform="translate(618,973)" d="m0 0 3 3 2 6v5l-2 1-1 7-3 3 1-4z" fill="#EEC06C"/>
<path transform="translate(268,463)" d="m0 0h5l1 7-3 3-4-1v-7z" fill="#2E1D10"/>
<path transform="translate(662,456)" d="m0 0 6 1-2 10-2 5-1-3v-5l-2 1v-7z" fill="#F2CA81"/>
<path transform="translate(442,904)" d="m0 0h3l1 2h19v2l-26 1z" fill="#270E05"/>
<path transform="translate(376,801)" d="m0 0 2 1-5 4h-2v2l-5 5-3 4v-7l2-4 8-4z" fill="#F7C65D"/>
<path transform="translate(861,476)" d="m0 0 4 1 1 7-2 2h-5l1-9z" fill="#2D1C0F"/>
<path transform="translate(235,904)" d="m0 0 5 1 1 6-4 3h-3v-9z" fill="#311F11"/>
<path transform="translate(736,859)" d="m0 0h1l-1 10-2 6-3 3-2 6-1-4 4-13h2l1-7z" fill="#210D06"/>
<path transform="translate(748,805)" d="m0 0h3l5 12-1 3-2-1-2 4-3 2 2-4 1-6z" fill="#321508"/>
<path transform="translate(876,769)" d="m0 0 4 2 1 1v5l-2 2h-5v-7z" fill="#2D1D11"/>
<path transform="translate(584,684)" d="m0 0h1v12l-3 5h-2v-9z" fill="#B77135"/>
<path transform="translate(511,567)" d="m0 0 1 3-3 8-3 6-3 3-1-6h2l1-4z" fill="#F6C55C"/>
<path transform="translate(427,535)" d="m0 0h3v15l-1 5h-2l-1-6z" fill="#3B2010"/>
<path transform="translate(597,364)" d="m0 0h11l7 2 1 2h-7l-3-1h-9l-5 3h-2l2-4z" fill="#CE9565"/>
<path transform="translate(627,325)" d="m0 0 5 1 14 10 6 8-4-1-1-4-4-2-10-7-6-4z" fill="#E0B171"/>
<path transform="translate(374,994)" d="m0 0h2l3 3 6 1v-4l5 2-2 1-1 3-4 2-3 1v-2l-5-1-2-5z" fill="#311B0E"/>
<path transform="translate(398,915)" d="m0 0h14v1l-26 2-6 1-1 2v-3l-6-1v-1z" fill="#5F3D21"/>
<path transform="translate(684,737)" d="m0 0 3 1 1 7h2l1 14 1 1v7l-2-2-5-25z" fill="#270E05"/>
<path transform="translate(866,736)" d="m0 0h3l1 2v9h-6v-6z" fill="#20140C"/>
<path transform="translate(649,585)" d="m0 0 4 2 5 8 5 7-1 2-9-9-2-4v-3h-2z" fill="#B77D48"/>
<path transform="translate(520,286)" d="m0 0 10 5 13 4 9 1v1h-10l-14-4-9-5z" fill="#2A0E04"/>
<path transform="translate(851,736)" d="m0 0 4 1 1 7-3 2h-4l1-9z" fill="#1D120A"/>
<path transform="translate(562,574)" d="m0 0 3 1-8 4-9 2-11-2-1-2h18z" fill="#DAA966"/>
<path transform="translate(382,443)" d="m0 0h1l1 15-4 1-1-2v-11z" fill="#F7C65D"/>
<path transform="translate(657,399)" d="m0 0 2 2-1 16-2 6-2-3v-7l2-12z" fill="#B77D48"/>
<path transform="translate(654,962)" d="m0 0 5 2 2 4 4 6v4l-4-1-5-10z" fill="#B77D48"/>
<path transform="translate(444,592)" d="m0 0 3 1-2 4-8 11h-2l1-5 4-4 1-3h2z" fill="#220E06"/>
<path transform="translate(901,577)" d="m0 0h1l1 12 1 2 4-1 1 4-2 2h-5l-1-1z" fill="#372112"/>
<path transform="translate(489,367)" d="m0 0 7 3-4 1h-9l-8 4-4 1 5-5 5-3z" fill="#DDAC6F"/>
<path transform="translate(300,337)" d="m0 0 5 1 1 1v5l-3 2h-4v-7z" fill="#150C07"/>
<path transform="translate(520,326)" d="m0 0 1 2-1 8 3-1-3 9h-2l-1-2v-8l1-7z" fill="#B7773F"/>
<path transform="translate(705,992)" d="m0 0 3 1-2 4-9 2h-7l-1-3h11v-2z" fill="#210E06"/>
<path transform="translate(532,791)" d="m0 0 2 2-1 12-1 7h-2l-1 3 1-14z" fill="#B77942"/>
<path transform="translate(493,756)" d="m0 0 10 3 6 4 4 3v2l-5-2-15-8z" fill="#370E02"/>
<path transform="translate(650,684)" d="m0 0h2l-1 8-3 9-1 2h-2l2-11z" fill="#B77135"/>
<path transform="translate(330,634)" d="m0 0h4l2 4-1 4-1 1h-5v-8z" fill="#170E08"/>
<path transform="translate(314,634)" d="m0 0h4l1 2v9h-5z" fill="#1C1109"/>
<path transform="translate(490,568)" d="m0 0v3l-5 6h-2l-2 4-4 3-1 3-3 2-3-1 5-6 8-7z" fill="#F5C666"/>
<path transform="translate(253,463)" d="m0 0h4l1 2v9h-5z" fill="#23150B"/>
<path transform="translate(572,451)" d="m0 0h1l-1 9-5 7-2 1h-7l3-3h5l2-5 2-2z" fill="#370E02"/>
<path transform="translate(811,442)" d="m0 0 4 2 1 9h-6v-10z" fill="#190F09"/>
<path transform="translate(553,296)" d="m0 0 20 3 3 3-10-1-19-3v-1z" fill="#300E03"/>
<path transform="translate(513,964)" d="m0 0 2 1 1 3v19l-3 4v-3z" fill="#B77D47"/>
<path transform="translate(220,902)" d="m0 0 4 1 3 4 1 4v15h-3v-18l-1-2-5-1z" fill="#F1E9E1"/>
<path transform="translate(386,794)" d="m0 0h8v2h2v8h-1v-6h-9l-7 1 2-3z" fill="#E8BD7A"/>
<path transform="translate(408,724)" d="m0 0h2l2 10h7l-1 2-10 2 3-3-3-3-1-7z" fill="#311A0E"/>
<path transform="translate(304,601)" d="m0 0 3 1 2 6v11l-3 3-1-18z" fill="#DDC1A8"/>
<path transform="translate(270,495)" d="m0 0h2l-1 7h-2l-2 13-1 5-1-3-2-1 4-12 2-8z" fill="#C9A788"/>
<path transform="translate(457,989)" d="m0 0h1l2 10-1 1h-20v-1l13-1 4-1v-6z" fill="#B77D48"/>
<path transform="translate(620,973)" d="m0 0 3 4 3 11v10l-4 1 1-4-1-13z" fill="#370E02"/>
<path transform="translate(721,966)" d="m0 0 3 3v13l-4 6h-2l2-7h2z" fill="#D8A969"/>
<path transform="translate(446,555)" d="m0 0h1v25l-3-4 1-16z" fill="#370E02"/>
<path transform="translate(576,547)" d="m0 0 2 4v2l7 2 1 2-9-1-9-2 1-2 6-1z" fill="#341E11"/>
<path transform="translate(667,527)" d="m0 0 1 3v8l-1 7-2 5h-1v-13z" fill="#2B0E04"/>
<path transform="translate(451,474)" d="m0 0h2l1 16 1 7-2 3-2-13z" fill="#B77A44"/>
<path transform="translate(519,444)" d="m0 0h2l4 4v3h-5l4 12h-2l-3-8-1-9z" fill="#B77136"/>
<path transform="translate(464,342)" d="m0 0 1 3 5-1 4-1-4 4-8 7h-2l1-6z" fill="#370E02"/>
<path transform="translate(405,974)" d="m0 0 1 2-1 5v10l2 6-2 1-3-5v-13z" fill="#370E02"/>
<path transform="translate(378,975)" d="m0 0h1v6h1l-1 9-3-1-1-2v-7l1-3h2z" fill="#E49925"/>
<path transform="translate(450,924)" d="m0 0 2 2v22l-2 2-3-2h2l1-10z" fill="#F7C65D"/>
<path transform="translate(650,885)" d="m0 0 1 4h-2l1 6-2 9-2-2v-10l2-6z" fill="#B7804C"/>
<path transform="translate(680,510)" d="m0 0 2 1-14 7-5 1-1-3 4 1 1-2 5-3z" fill="#B77D48"/>
<path transform="translate(266,472)" d="m0 0h6l-1 3h-4l1 11-1 3h-2v-16z" fill="#FCFCFC"/>
<path transform="translate(388,409)" d="m0 0 2 1-2 5-4 7-3 7-2-1 1-7h2l2-6z" fill="#241209"/>
<path transform="translate(545,405)" d="m0 0h8v2l-13 1-11 2v-3z" fill="#B77F4B"/>
<path transform="translate(461,390)" d="m0 0h1l-1 8-4 19h-1l1-15 3-11z" fill="#DDAE6B"/>
<path transform="translate(471,378)" d="m0 0 2 4 2 2-2 3h-2v-2h-4l-3 9-3 4 2-9 7-10z" fill="#351206"/>
<path transform="translate(691,844)" d="m0 0 2 1-1 11-4 8h-2l2-9z" fill="#B77D47"/>
<path transform="translate(755,798)" d="m0 0h2l2 5v3l5-2 1 2-2 3-4-1-2 1-3-7z" fill="#32190D"/>
<path transform="translate(409,745)" d="m0 0h2l3 10v7l-4-6-2 2z" fill="#E1B376"/>
<path transform="translate(684,984)" d="m0 0 2 1-1 5-5 5-6 1-1-2 6-2z" fill="#E0B171"/>
<path transform="translate(414,907)" d="m0 0m-11 1h11l2 2-5 1h-22v-1h14z" fill="#6D3E1E"/>
<path transform="translate(364,892)" d="m0 0h2l7 15-1 2-7-7z" fill="#1D0C06"/>
<path transform="translate(400,781)" d="m0 0h1l-1 14-3 1-3-2 3-5 2-7z" fill="#1F0E06"/>
<path transform="translate(572,563)" d="m0 0 12 1v2l2 1h-11l-5 1z" fill="#B77D48"/>
<path transform="translate(533,515)" d="m0 0 10 2-1 5-1-2h-9l-1-2-2-1z" fill="#B9814F"/>
<path transform="translate(428,487)" d="m0 0 3 3 5 11 1 7-3-3-6-14z" fill="#F7C65D"/>
<path transform="translate(385,461)" d="m0 0h5v2l-14 4h-3l-1-3z" fill="#3F2412"/>
<path transform="translate(517,431)" d="m0 0 4 1 1 7-4 3-5-2v-2l4-2z" fill="#B77840"/>
<path transform="translate(680,864)" d="m0 0h2l-3 10-4 8-2-3 6-14z" fill="#E1B272"/>
<path transform="translate(440,799)" d="m0 0 2 1 6 14 1 8-2-1-4-11-3-8z" fill="#F7C65D"/>
<path transform="translate(707,661)" d="m0 0 6 2 7 7v2l-5-2-3-2v-2l-6-2z" fill="#270E05"/>
<path transform="translate(415,648)" d="m0 0h1l-1 9-3 11-2 1 1-5v-10l2-5z" fill="#210E06"/>
<path transform="translate(484,636)" d="m0 0 16 1 6 1v2l-15-1-7-1z" fill="#DBAB6A"/>
<path transform="translate(576,562)" d="m0 0 17 1 6 2-1 2-9-1-13-3z" fill="#411909"/>
<path transform="translate(515,559)" d="m0 0h3l7 9 2 3-4-1-5-5-2 1v-2h-2v-2h2z" fill="#B77D48"/>
<path transform="translate(452,543)" d="m0 0 1 3-3 14-1 7h-1v-17z" fill="#F0C587"/>
<path transform="translate(627,362)" d="m0 0h2l-1 4-8 11-2-4z" fill="#412110"/>
<path transform="translate(519,962)" d="m0 0 6 1 1 2h-5l1 12-3 1-1-15z" fill="#B77C47"/>
<path transform="translate(566,940)" d="m0 0h1v16l-5 3-2-1v-2l4-2 1-12z" fill="#B77F4B"/>
<path transform="translate(562,834)" d="m0 0 3 4v6l1 1v7h-3l-1-9z" fill="#B77C46"/>
<path transform="translate(781,746)" d="m0 0h2l-1 12-2 6-1-3 1-4v-5l-5 3h-3z" fill="#B77840"/>
<path transform="translate(783,716)" d="m0 0h1l-1 14-4 5 2-18z" fill="#210E06"/>
<path transform="translate(471,648)" d="m0 0v3l-1 2 7-1v7l3 1v7h-1v-6l-4 1-2-7-4-1 1-5z" fill="#B77338"/>
<path transform="translate(802,605)" d="m0 0h10v3h-8v9h-1l-1-6-1-4z" fill="#D9BA9E"/>
<path transform="translate(647,575)" d="m0 0h8l-3 1 3 5 1 6-1-2-4-1-3-6z" fill="#2A160B"/>
<path transform="translate(615,553)" d="m0 0 1 2-1 4h3v-3l3 1 1 7 3 1-9-1 3-1v-2l-7-1v-3z" fill="#A26533"/>
<path transform="translate(584,543)" d="m0 0 3 1-5 7 7 2v1h-9l-2-1 1-4z" fill="#B77E49"/>
<path transform="translate(606,504)" d="m0 0h2v2l-9 6-6 3-3 5-1-3 4-6 9-4z" fill="#DCAB6B"/>
<path transform="translate(667,453)" d="m0 0h11l10 1v2h-19z" fill="#4F2813"/>
<path transform="translate(705,447)" d="m0 0h16l3 3h-14l-5-1z" fill="#5B3017"/>
<path transform="translate(466,397)" d="m0 0h1l-1 11-3 4-1-5v-5l2-4z" fill="#190F09"/>
<path transform="translate(607,324)" d="m0 0h2v3l3 1-1 4-1 5-4-1v-8z" fill="#9E5F2C"/>
<path transform="translate(691,974)" d="m0 0h1v13l-2 5 3 2h-6l2-9 1-10z" fill="#BA8453"/>
<path transform="translate(687,718)" d="m0 0h1l-1 15-2 3-2-1 2-12z" fill="#320E02"/>
<path transform="translate(356,605)" d="m0 0h4l4 12-1 3-5-10-1 7h-1z" fill="#DBC2AC"/>
<path transform="translate(445,466)" d="m0 0h1l3 25h-1l-1 9h-1v-18z" fill="#B77236"/>
<path transform="translate(770,788)" d="m0 0 1 2-2 9-4 5-3 1 2-6z" fill="#1E0D06"/>
<path transform="translate(727,683)" d="m0 0 3 1 3 7 8 1v1h-13z" fill="#EBC17C"/>
<path transform="translate(544,539)" d="m0 0 3 3v6l1 1-1 9-2-1z" fill="#AE7644"/>
<path transform="translate(490,445)" d="m0 0v3l-3 1-1 5-4 12h-1l1-9 4-11z" fill="#F7C65D"/>
<path transform="translate(496,421)" d="m0 0h3l-1 3-11 2-8-1v-1z" fill="#B77D48"/>
<path transform="translate(511,300)" d="m0 0 6 1v2l-4 3h-2v-3l-7 2-3-2z" fill="#C78E57"/>
<path transform="translate(515,287)" d="m0 0h2l3 5 6 4-1 2-9-3-7-1v-1h6z" fill="#2D0E03"/>
<path transform="translate(564,959)" d="m0 0h2l1 3-2 16h-2v-17z" fill="#B77F4B"/>
<path transform="translate(730,865)" d="m0 0 2 1-1 8-3 10-2-3 2-9z" fill="#DEAF6D"/>
<path transform="translate(865,734)" d="m0 0 5 1 3 3v3h-2v6h-1l-1-11h-3l-1 3-1-2-1 6h-1v-7z" fill="#D5B496"/>
<path transform="translate(435,547)" d="m0 0h3l-1 9-6-2-1 2 1-4z" fill="#4C2913"/>
<path transform="translate(454,508)" d="m0 0h2l1 3v8l-3 3h-1v-10z" fill="#B8814E"/>
<path transform="translate(605,422)" d="m0 0 5 1 4 7h-4l-2-2-2-3-1 2v-2l-3-1z" fill="#B77439"/>
<path transform="translate(603,997)" d="m0 0 9 2 1 2h-12l-5-1v-2h6z" fill="#ECC27B"/>
<path transform="translate(380,921)" d="m0 0 2 3 5 8-2 4-6-7z" fill="#241007"/>
<path transform="translate(558,851)" d="m0 0h2l1 2v12l-1 5h-1l-1-11-1-3z" fill="#B77F4A"/>
<path transform="translate(721,669)" d="m0 0 3 3 5 11h-2l-1 3-5-12z" fill="#E2B46E"/>
<path transform="translate(456,621)" d="m0 0 11 1 3 1v2l-14-1-4-2z" fill="#39180A"/>
<path transform="translate(639,551)" d="m0 0 7 6 4 5-1 2-4-2-6-9z" fill="#360E02"/>
<path transform="translate(662,542)" d="m0 0h1l2 13h-2l-4-5-1-4-1-2z" fill="#B77F4C"/>
<path transform="translate(511,310)" d="m0 0h2v6l-3 3-2 4h-2l1-6z" fill="#DAA467"/>
<path transform="translate(497,302)" d="m0 0h5l-3 3-6 3v4l-5-1 2-1v-3h2v-2h2v-2z" fill="#2A1208"/>
<path transform="translate(517,287)" d="m0 0 5 2 6 3v2l-5 1-6-5z" fill="#D19D66"/>
<path transform="translate(400,960)" d="m0 0m-8 1h8l5 1v1l-14 3h-4v-2l4-1z" fill="#280E04"/>
<path transform="translate(513,766)" d="m0 0 9 6 3 1-1 2h-4l-9-6 2-1z" fill="#C17E38"/>
<path transform="translate(723,738)" d="m0 0 2 2-5 12-2-1 1-7z" fill="#1E0C06"/>
<path transform="translate(426,729)" d="m0 0h4v2l2 1-13 3-4-2 10-3z" fill="#572C15"/>
<path transform="translate(427,665)" d="m0 0h1l1 19-3 3v-18z" fill="#F7C65D"/>
<path transform="translate(499,569)" d="m0 0 1 2-3 6-4 2h-3v-3z" fill="#C57D2F"/>
<path transform="translate(381,486)" d="m0 0 4 5 5 9-3 1-4-4-1-7z" fill="#2B0E04"/>
<path transform="translate(745,339)" d="m0 0 3 1 1 5v12l-1 3-2-1v-15z" fill="#F3EBE5"/>
<path transform="translate(351,335)" d="m0 0 3 1 3 8-5 2-2-4z" fill="#D9BBA0"/>
<path transform="translate(683,869)" d="m0 0 3 1-4 8-5 11-1-4z" fill="#D29B66"/>
<path transform="translate(451,806)" d="m0 0h2l3 8 1 10-2-2-4-13z" fill="#F7C65D"/>
<path transform="translate(853,750)" d="m0 0h3l3 8v5l-3 1z" fill="#F5EEE9"/>
<path transform="translate(771,748)" d="m0 0 4 2-3 3h-2l-2 4-3 3-1-3 6-8z" fill="#CF862C"/>
<path transform="translate(723,748)" d="m0 0h1v6l-1 2-5 3-3 2 2-5 1-2h2v-4z" fill="#E6BF86"/>
<path transform="translate(780,713)" d="m0 0h1v10l-2 8h-1v-7h-2l3-9z" fill="#B97D47"/>
<path transform="translate(654,548)" d="m0 0 2 1 2 10-6-5-3-2 2-2h3z" fill="#B77C47"/>
<path transform="translate(445,534)" d="m0 0v3l-2 1 3 2v3l-4 1-2-2-2 1 2-8z" fill="#C07B34"/>
<path transform="translate(496,511)" d="m0 0h13v2l-2 1h-9l-6-1z" fill="#DBA764"/>
<path transform="translate(774,474)" d="m0 0h7v3h-7v7l-3-3 1-6z" fill="#D8B99D"/>
<path transform="translate(661,432)" d="m0 0 2 4v9l-5-1 1-7h2z" fill="#F3CD84"/>
<path transform="translate(592,414)" d="m0 0 9 2 2 2-2 1h-6l-6-3z" fill="#1F0D06"/>
<path transform="translate(622,332)" d="m0 0 5 5 5 10-2 4-5-12-3-4z" fill="#E0B16E"/>
<path transform="translate(459,332)" d="m0 0 3 1-6 7-5 4 1-5 4-4h2z" fill="#D7A056"/>
<path transform="translate(605,314)" d="m0 0 7 1 13 7v2l-5-2-15-7z" fill="#D8A767"/>
<path transform="translate(626,991)" d="m0 0 2 4v3l9 1v2h-11l-1-3z" fill="#E5B876"/>
<path transform="translate(443,856)" d="m0 0h2l1 8v16h-1l-1-12v-6h-2v-5z" fill="#F7C65D"/>
<path transform="translate(695,826)" d="m0 0 1 4-1 8-1 6-2-1 1-13z" fill="#B77E49"/>
<path transform="translate(461,727)" d="m0 0h6v2l-13 4-2-1 3-3z" fill="#481E0C"/>
<path transform="translate(517,549)" d="m0 0 2 3 6 11h-5l-2-2v-6z" fill="#452714"/>
<path transform="translate(248,495)" d="m0 0h8v2h-7v8l-3-1v-7z" fill="#EBDED2"/>
<path transform="translate(613,378)" d="m0 0 1 3 2 1 1 3 3 1v3h-5l-1-3h-2z" fill="#5D3E24"/>
<path transform="translate(479,313)" d="m0 0 12 3-1 2h-13z" fill="#4F2F18"/>
<path transform="translate(637,971)" d="m0 0h2v2h2l3 7-1 13h-1l-1-13-4-8z" fill="#EAB453"/>
<path transform="translate(367,822)" d="m0 0 1 4-4 9-1 5-2-2v-6l4-6-1-2z" fill="#F7C65D"/>
<path transform="translate(491,745)" d="m0 0 5 3 5 7-6-2-5-3 2-2z" fill="#BD7936"/>
<path transform="translate(831,584)" d="m0 0h2l2 11 1 5-3-1-2-6z" fill="#DCC5B1"/>
<path transform="translate(515,571)" d="m0 0h2l-3 9-4 7-1-3 4-10z" fill="#F7C65D"/>
<path transform="translate(512,441)" d="m0 0 3 1 1 7v9h-1l-2-8-1-5z" fill="#B77439"/>
<path transform="translate(466,336)" d="m0 0h2l-2 5-5 10h-2l1-6z" fill="#DBAC6A"/>
<path transform="translate(685,964)" d="m0 0 3 1 3 6v10l-2-1-2-10z" fill="#B77941"/>
<path transform="translate(355,830)" d="m0 0h1v17h-3v-10h1z" fill="#1E0E07"/>
<path transform="translate(712,764)" d="m0 0 1 2-2 4-8 9-3-1 10-11z" fill="#B77F4B"/>
<path transform="translate(670,762)" d="m0 0h1v12l-3 7-2-1z" fill="#370E02"/>
<path transform="translate(776,707)" d="m0 0h1l-1 9-2 8-3-2 3-10z" fill="#E0B26E"/>
<path transform="translate(693,696)" d="m0 0 2 1-2 4 16 1v1h-18l-1-5z" fill="#26140A"/>
<path transform="translate(428,624)" d="m0 0 13 2 1 2h-9l-7-1 2-1z" fill="#391D0E"/>
<path transform="translate(431,533)" d="m0 0 9 1-1 2h-2l-2 5-2 1z" fill="#BC7C3E"/>
<path transform="translate(422,491)" d="m0 0 4 4 5 10v2h-2l-5-8-2-5z" fill="#F6C65E"/>
<path transform="translate(388,970)" d="m0 0h2l-1 5v11l1 6-2-1-2-16v-3z" fill="#F6C65E"/>
<path transform="translate(564,900)" d="m0 0h1l1 17h-2l-1-3v-10z" fill="#B77D48"/>
<path transform="translate(426,787)" d="m0 0 2 3 2 5-1 4-4-6-1 6h-1v-9h2z" fill="#C07B35"/>
<path transform="translate(420,762)" d="m0 0h2l3 9-2 4-2-3-1-3z" fill="#E3B56D"/>
<path transform="translate(488,738)" d="m0 0 7 6 4 4v2l-4-2-3-2v-2h-2l-3-5z" fill="#F6C765"/>
<path transform="translate(674,627)" d="m0 0h3l5 13v3h-2l-4-11z" fill="#D8A766"/>
<path transform="translate(288,613)" d="m0 0h4l1 10-3-1v-5l-4 1 1-4z" fill="#DCC1A8"/>
<path transform="translate(496,568)" d="m0 0h2l-2 4-10 9-3 1v-2l8-7z" fill="#F4C870"/>
<path transform="translate(470,560)" d="m0 0h2l-1 5-3 6h-2v2h-3l2-4z" fill="#EEC681"/>
<path transform="translate(310,478)" d="m0 0 1 3 4-1v5l-1 1h-5v-6z" fill="#0C0604"/>
<path transform="translate(392,416)" d="m0 0h1v10l-1 8h-1l-1-9-1-4z" fill="#F7C65D"/>
<path transform="translate(578,408)" d="m0 0 4 1 5 6-9-2-2-1z" fill="#B9814E"/>
<path transform="translate(778,735)" d="m0 0 2 2v4l-2 1v3h6l-1 4v-3l-6 2v-2h-2z" fill="#1E0E07"/>
<path transform="translate(826,606)" d="m0 0 1 3-2 6-3 10h-2l2-11z" fill="#F5F0EB"/>
<path transform="translate(343,599)" d="m0 0h8l1 3-8 1-1-1-1 5h-1v-6z" fill="#C59A74"/>
<path transform="translate(736,572)" d="m0 0 2 1-1 24-3-4 1-5z" fill="#29170C"/>
<path transform="translate(619,487)" d="m0 0 1 2-5 9h-2l-2 4-1-3 7-11z" fill="#DDAD6A"/>
<path transform="translate(510,394)" d="m0 0h2l2 16h-3z" fill="#B7804C"/>
<path transform="translate(634,369)" d="m0 0h2l-2 5-7 8-2 3 1-5z" fill="#D9A968"/>
<path transform="translate(611,339)" d="m0 0 6 1 9 7-1 3-8-7-6-3z" fill="#DFAF68"/>
<path transform="translate(870,337)" d="m0 0h9v2h-7v10h-1l-1-7-1-4z" fill="#E2CCB9"/>
<path transform="translate(380,972)" d="m0 0h3l-3 9-2 2 1-8-4 1 2-3z" fill="#DCAB6B"/>
<path transform="translate(429,907)" d="m0 0h11l-1 3h-11z" fill="#522E17"/>
<path transform="translate(727,884)" d="m0 0 2 3-1 5-2 4-3 1 3-11z" fill="#1E0D06"/>
<path transform="translate(561,862)" d="m0 0h1l1 16h-2l-1-2v-11z" fill="#B77941"/>
<path transform="translate(447,807)" d="m0 0h2l3 6 1 11-2-2z" fill="#F7C65D"/>
<path transform="translate(780,763)" d="m0 0 3 1-2 5-6 8-1-3z" fill="#2E0E03"/>
<path transform="translate(406,743)" d="m0 0h3l-1 8-2 11h-1l-1-9 3-8z" fill="#311408"/>
<path transform="translate(489,751)" d="m0 0 6 1 7 4-1 2-12-5z" fill="#370E02"/>
<path transform="translate(459,720)" d="m0 0h2v3l-9 3-4-1 5-3z" fill="#3D1708"/>
<path transform="translate(410,709)" d="m0 0 2 3 1 10-4-2v-10z" fill="#E9BE74"/>
<path transform="translate(733,704)" d="m0 0 7 1v1h-5v2h-2v7h-2v-9z" fill="#F2CC85"/>
<path transform="translate(539,524)" d="m0 0h3v8l-2 3-3-7 1-3z" fill="#B8814E"/>
<path transform="translate(800,475)" d="m0 0h10v2h-8v11h-1l-1-10z" fill="#D2B091"/>
<path transform="translate(526,471)" d="m0 0h7l5 4 5 2-4 1-9-4v-2z" fill="#B77942"/>
<path transform="translate(793,452)" d="m0 0 3 1 3 7h2v4l-4-1-4-8z" fill="#E3CDBA"/>
<path transform="translate(509,294)" d="m0 0h7l4 2h-5l3 2 3 3-2 1v-2l-9-3z" fill="#BD8452"/>
<path transform="translate(471,967)" d="m0 0 3 1-4 9-2 2-2-4z" fill="#EBC073"/>
<path transform="translate(518,955)" d="m0 0 6 2 3 3-5 1-4-2z" fill="#BA7D43"/>
<path transform="translate(701,949)" d="m0 0h8l6 4v2l-9-3-5-2z" fill="#270E05"/>
<path transform="translate(648,919)" d="m0 0h1v9l-3 3h-2v-5l3-1z" fill="#370E02"/>
<path transform="translate(717,904)" d="m0 0 1 4-3 6-3-1 1-5z" fill="#E7BB75"/>
<path transform="translate(676,878)" d="m0 0h2l-1 7-2 4-3-1 2-6z" fill="#320E02"/>
<path transform="translate(756,796)" d="m0 0h2l2 5h2l1-3-1 7-3 1z" fill="#B77C46"/>
<path transform="translate(762,670)" d="m0 0 3 3 2 7-4 1-1-2z" fill="#F0C184"/>
<path transform="translate(754,671)" d="m0 0h6l1 1v6l-4-1-3-4z" fill="#370E02"/>
<path transform="translate(502,635)" d="m0 0 11 2-1 2-12-1v-2z" fill="#4C220E"/>
<path transform="translate(446,548)" d="m0 0 1 2-3 9h-2l-1-6z" fill="#EFC683"/>
<path transform="translate(390,467)" d="m0 0 4 1v2l-11 2-1-3z" fill="#572C15"/>
<path transform="translate(252,461)" d="m0 0h6l3 4v5l-3 3-1-10-5-1z" fill="#CAA079"/>
<path transform="translate(397,458)" d="m0 0m-7 1h7l5 1v1l-12 2v-2l-4-1z" fill="#764220"/>
<path transform="translate(651,435)" d="m0 0 2 3-1 5h6l1 2h-9v-7z" fill="#B77E49"/>
<path transform="translate(563,429)" d="m0 0 9 1v2l5 1-2 3h-2v-3l-5-1-5-2z" fill="#370E02"/>
<path transform="translate(619,317)" d="m0 0 7 2 5 3v2l-6-1-5-3z" fill="#250E05"/>
<path transform="translate(716,910)" d="m0 0 1 4-3 7-3 3-1-2z" fill="#260E05"/>
<path transform="translate(606,859)" d="m0 0h1l1 10-1 5h-2v-11z" fill="#F7C65D"/>
<path transform="translate(673,760)" d="m0 0h1l1 6 2 2h-2l-2 4-2 1v-11z" fill="#AC6B34"/>
<path transform="translate(458,709)" d="m0 0h2l5 6v2l4 1-7 1-4-8z" fill="#B87438"/>
<path transform="translate(759,666)" d="m0 0h1l-1 8-1-3-3 1-3-2v-3l4 1z" fill="#1F0E06"/>
<path transform="translate(494,627)" d="m0 0 14 1 1 2-7 1-4-1v-2z" fill="#3E1809"/>
<path transform="translate(645,554)" d="m0 0 3 1 2-1 2 4v4l-4-2-3-3z" fill="#B77C46"/>
<path transform="translate(673,516)" d="m0 0m-1 1m-2 1h2l-1 6-3 9-1-3z" fill="#1E0E07"/>
<path transform="translate(266,461)" d="m0 0h6l-4 4-1 7-2 1v-11z" fill="#E3CFBD"/>
<path transform="translate(429,367)" d="m0 0h2l-1 3-9 5h-5l1-2 10-4z" fill="#DEAE6F"/>
<path transform="translate(653,353)" d="m0 0h16l-4 2-1 4-3-1-1-4h-7z" fill="#250E05"/>
<path transform="translate(748,780)" d="m0 0h2l1 2v3l-5 5h-2l2-4h2v-2l-2-1z" fill="#3B1103"/>
<path transform="translate(567,776)" d="m0 0 3 1-2 3h-3v2l-5 1v-3z" fill="#B77E49"/>
<path transform="translate(776,713)" d="m0 0 2 3-1 6-4 5 2-11z" fill="#320E02"/>
<path transform="translate(488,711)" d="m0 0h4v3l-7 2-4-1 5-3z" fill="#47200E"/>
<path transform="translate(752,672)" d="m0 0 4 2 1 4-1 2v5l-2-2z" fill="#EABB68"/>
<path transform="translate(443,619)" d="m0 0 10 1 3 2-7 1-6-1z" fill="#49200D"/>
<path transform="translate(446,518)" d="m0 0h3v9h-2l-3-3z" fill="#B8814E"/>
<path transform="translate(379,470)" d="m0 0h5l-1 3-6 1 1 5-2-1-1-7z" fill="#351D0F"/>
<path transform="translate(713,455)" d="m0 0 7 1v11l-3 1 2-11h-6z" fill="#261107"/>
<path transform="translate(514,423)" d="m0 0h2l1 4h2l1 3-4-1-7-2 2-2h3z" fill="#F7C65D"/>
<path transform="translate(521,409)" d="m0 0 4 1-1 2-9 4h-3v-2l8-4z" fill="#B77C46"/>
<path transform="translate(608,368)" d="m0 0 5 1 5 5-2 1-8-4z" fill="#260E05"/>
<path transform="translate(474,343)" d="m0 0 4 1-4 3h-3v2l-6 3 2-4z" fill="#DEAF6D"/>
<path transform="translate(488,323)" d="m0 0h2l3 9-1 4-4-8z" fill="#B77135"/>
<path transform="translate(527,317)" d="m0 0h2l-3 10-3 1 1-7z" fill="#F6C65E"/>
<path transform="translate(268,771)" d="m0 0 5 1 2 2 1 10-2 1-2-10-4-2z" fill="#DBBFA6"/>
<path transform="translate(451,730)" d="m0 0h2l-1 3-10 3-1-3z" fill="#562C15"/>
<path transform="translate(521,510)" d="m0 0m-2 1h2v2l-9 3v2h-5l2-3z" fill="#B77135"/>
<path transform="translate(467,480)" d="m0 0h2l4 12-4-1-2-5z" fill="#E8BD76"/>
<path transform="translate(271,475)" d="m0 0 3 3 3 9-1 3h-2l-2-11z" fill="#FCFCFC"/>
<path transform="translate(701,397)" d="m0 0 3 1 4 7-1 4-6-10z" fill="#DDAF6D"/>
<path transform="translate(233,335)" d="m0 0 5 1v3h-5l-5 2 2-4z" fill="#E6D5C6"/>
<path transform="translate(606,312)" d="m0 0 8 1 5 3 1 3-6-2-8-4z" fill="#300E03"/>
<path transform="translate(401,991)" d="m0 0 4 5v2h-8v-3l3-1z" fill="#B77E4A"/>
<path transform="translate(445,957)" d="m0 0 3 1-3 2-2 5-3 2-2-2 3-2v-4z" fill="#8E5322"/>
<path transform="translate(665,894)" d="m0 0 3 1-5 8-2-4z" fill="#DEAD71"/>
<path transform="translate(748,805)" d="m0 0h3l3 8-3 2z" fill="#3C1909"/>
<path transform="translate(420,739)" d="m0 0 3 1-4 1v2l-3 1-2 3-1-3-3-2z" fill="#673E20"/>
<path transform="translate(447,547)" d="m0 0h2l-1 13h-3v-7z" fill="#CE872F"/>
<path transform="translate(687,504)" d="m0 0h2l-1 3-8 4h-2l2-4z" fill="#E3B674"/>
<path transform="translate(854,486)" d="m0 0 3 3v9l-2-4-2 4z" fill="#543821"/>
<path transform="translate(313,476)" d="m0 0h4l-1 8-1-4-4 1 1-4z" fill="#E8D8C9"/>
<path transform="translate(555,468)" d="m0 0 3 1-6 7h-3l2-4z" fill="#370E02"/>
<path transform="translate(517,432)" d="m0 0 1 4-2 2h-3l1 3-4-1 1-3z" fill="#370E02"/>
<path transform="translate(589,371)" d="m0 0 2 1-3 4 1 5-4 1-1-4z" fill="#411D0C"/>
<path transform="translate(591,370)" d="m0 0 5 1-5 5-4 1z" fill="#170C06"/>
<path transform="translate(727,336)" d="m0 0h5l1 4-4-1-1 5-3-4z" fill="#D7B89C"/>
<path transform="translate(514,323)" d="m0 0 2 4-2 7-3 1v-6l2-2z" fill="#BB824B"/>
<path transform="translate(493,323)" d="m0 0 2 1 2 9-2 2-2-5-1-6z" fill="#B77135"/>
<path transform="translate(529,322)" d="m0 0h2l-1 6-7 7 1-5 3-3z" fill="#B77339"/>
<path transform="translate(495,306)" d="m0 0h3l2 10-8-8z" fill="#DBAC6B"/>
<path transform="translate(680,994)" d="m0 0 2 2-3 2h-14v-2h10z" fill="#370E02"/>
<path transform="translate(460,987)" d="m0 0h1l1 10-2 2-2-4v-5z" fill="#2E0E03"/>
<path transform="translate(643,983)" d="m0 0h2l1 11-3-1z" fill="#DDA96E"/>
<path transform="translate(520,980)" d="m0 0 8 2-1 3-7-1z" fill="#E1AF76"/>
<path transform="translate(442,965)" d="m0 0v3l-4 6-4 2 2-5 5-5z" fill="#E3B469"/>
<path transform="translate(709,954)" d="m0 0 6 1 5 6-1 4-6-8z" fill="#E0B371"/>
<path transform="translate(647,917)" d="m0 0h1v6l-3 3h-2l1-5z" fill="#D39966"/>
<path transform="translate(420,781)" d="m0 0 3 1v10l-2 2z" fill="#EEC478"/>
<path transform="translate(482,739)" d="m0 0 4 2 5 4 1 3-4-1-6-6z" fill="#370E02"/>
<path transform="translate(428,737)" d="m0 0 4 1h-2v2l-7 2-4-1 5-3z" fill="#471D0B"/>
<path transform="translate(713,661)" d="m0 0 7 6 1 5-10-10z" fill="#D9A86A"/>
<path transform="translate(680,634)" d="m0 0 5 4v7l-2 2-3-10z" fill="#330E02"/>
<path transform="translate(612,548)" d="m0 0 2 1-4 7-3 1-2-2h2l2-4z" fill="#B77135"/>
<path transform="translate(656,546)" d="m0 0 5 5v3l-5-1-1-5z" fill="#370E02"/>
<path transform="translate(651,515)" d="m0 0 3 2h4l-1 4h-7z" fill="#B77E49"/>
<path transform="translate(287,495)" d="m0 0 5 1 1 3h-3v-2l-8 4 2-4z" fill="#E7D6C7"/>
<path transform="translate(801,459)" d="m0 0 2 2v8h-3l-2-5h3z" fill="#F1E9E2"/>
<path transform="translate(254,428)" d="m0 0h7v3h-8l-2 2 1-4z" fill="#CEA682"/>
<path transform="translate(609,420)" d="m0 0 7 1-3 5h-2l-3-5z" fill="#EBB04F"/>
<path transform="translate(584,380)" d="m0 0h1l-1 9-2 1-2 3 1-7z" fill="#2D0E03"/>
<path transform="translate(489,367)" d="m0 0 7 3-4 1-9-1v-2z" fill="#DBAA6F"/>
<path transform="translate(355,344)" d="m0 0h2l4 9v2h-3l-3-9z" fill="#E7D5C5"/>
<path transform="translate(865,337)" d="m0 0h2l-1 6-3 3h-2l2-6z" fill="#E0C8B2"/>
<path transform="translate(470,323)" d="m0 0 2 1-2 3h-3l-2 4-4 2 2-4z" fill="#DEB271"/>
<path transform="translate(704,922)" d="m0 0h2l-1 4-3 6-3 2v-3l4-7z" fill="#F7C65D"/>
<path transform="translate(220,902)" d="m0 0 4 1 3 4v9h-1l-2-10-5-1z" fill="#E1CBB7"/>
<path transform="translate(742,821)" d="m0 0 3 3h2l-2 4-2 3h-2z" fill="#B77D48"/>
<path transform="translate(555,812)" d="m0 0h1l1 12-3 1-1-6z" fill="#B77A43"/>
<path transform="translate(824,734)" d="m0 0 4 1 1 4h-2v-2h-3l-1 4-2-5z" fill="#D9BBA0"/>
<path transform="translate(317,632)" d="m0 0 4 2 1 6-3 4-1-10-3-1z" fill="#D7B79B"/>
<path transform="translate(542,482)" d="m0 0h1v12l-4-1 1-1 1-9z" fill="#D8A666"/>
<path transform="translate(508,428)" d="m0 0 2 1-3 3 2 3h-8l1-3z" fill="#F7C65D"/>
<path transform="translate(630,401)" d="m0 0h1l1 12-6 2 3-4z" fill="#370E02"/>
<path transform="translate(379,346)" d="m0 0h2v10l-3-1v-8z" fill="#F1E8E0"/>
</svg>
